<?xml version="1.0" encoding="UTF-8" standalone="no"?>
<!DOCTYPE svg PUBLIC "-//W3C//DTD SVG 1.1//EN"
 "http://www.w3.org/Graphics/SVG/1.1/DTD/svg11.dtd">
<!-- Generated by graphviz version 2.42.4 (0)
 -->
<!-- Title: G Pages: 1 -->
<svg width="1866pt" height="2226pt"
 viewBox="0.00 0.00 1866.18 2225.60" xmlns="http://www.w3.org/2000/svg" xmlns:xlink="http://www.w3.org/1999/xlink">
<g id="graph0" class="graph" transform="scale(1 1) rotate(0) translate(28.8 2196.8)">
<title>G</title>
<polygon fill="#0f172a" stroke="transparent" points="-28.8,28.8 -28.8,-2196.8 1837.38,-2196.8 1837.38,28.8 -28.8,28.8"/>
<text text-anchor="middle" x="904.29" y="-2144.8" font-family="Arial" font-size="24.00" fill="#f8fafc">Diagramme de communication — Agent orchestrateur SEO&#45;GEO&#45;AEO</text>
<g id="clust1" class="cluster">
<title>cluster_audit</title>
<path fill="#0f172a" stroke="#2563eb" stroke-dasharray="5,2" d="M685.08,-1496C685.08,-1496 1199.08,-1496 1199.08,-1496 1205.08,-1496 1211.08,-1502 1211.08,-1508 1211.08,-1508 1211.08,-2114 1211.08,-2114 1211.08,-2120 1205.08,-2126 1199.08,-2126 1199.08,-2126 685.08,-2126 685.08,-2126 679.08,-2126 673.08,-2120 673.08,-2114 673.08,-2114 673.08,-1508 673.08,-1508 673.08,-1502 679.08,-1496 685.08,-1496"/>
<text text-anchor="middle" x="942.08" y="-2102.8" font-family="Arial" font-size="24.00" fill="#dbeafe">Agents d&#39;audit — run &#45;&#45;full en parallèle</text>
</g>
<g id="clust2" class="cluster">
<title>cluster_actions</title>
<path fill="#0f172a" stroke="#16a34a" stroke-dasharray="5,2" d="M665.58,-291C665.58,-291 1195.58,-291 1195.58,-291 1201.58,-291 1207.58,-297 1207.58,-303 1207.58,-303 1207.58,-501 1207.58,-501 1207.58,-507 1201.58,-513 1195.58,-513 1195.58,-513 665.58,-513 665.58,-513 659.58,-513 653.58,-507 653.58,-501 653.58,-501 653.58,-303 653.58,-303 653.58,-297 659.58,-291 665.58,-291"/>
<text text-anchor="middle" x="930.58" y="-489.8" font-family="Arial" font-size="24.00" fill="#dcfce7">Agents d&#39;action / spécialistes</text>
</g>
<g id="clust3" class="cluster">
<title>cluster_scripts</title>
<path fill="#0f172a" stroke="#6b7280" stroke-dasharray="5,2" d="M977.58,-722C977.58,-722 1313.58,-722 1313.58,-722 1319.58,-722 1325.58,-728 1325.58,-734 1325.58,-734 1325.58,-1476 1325.58,-1476 1325.58,-1482 1319.58,-1488 1313.58,-1488 1313.58,-1488 977.58,-1488 977.58,-1488 971.58,-1488 965.58,-1482 965.58,-1476 965.58,-1476 965.58,-734 965.58,-734 965.58,-728 971.58,-722 977.58,-722"/>
<text text-anchor="middle" x="1145.58" y="-1464.8" font-family="Arial" font-size="24.00" fill="#e5e7eb">Outils internes — scripts Python</text>
</g>
<g id="clust4" class="cluster">
<title>cluster_paid</title>
<path fill="#0f172a" stroke="#ea580c" stroke-dasharray="5,2" d="M1391.58,-1130C1391.58,-1130 1788.58,-1130 1788.58,-1130 1794.58,-1130 1800.58,-1136 1800.58,-1142 1800.58,-1142 1800.58,-1476 1800.58,-1476 1800.58,-1482 1794.58,-1488 1788.58,-1488 1788.58,-1488 1391.58,-1488 1391.58,-1488 1385.58,-1488 1379.58,-1482 1379.58,-1476 1379.58,-1476 1379.58,-1142 1379.58,-1142 1379.58,-1136 1385.58,-1130 1391.58,-1130"/>
<text text-anchor="middle" x="1590.08" y="-1464.8" font-family="Arial" font-size="24.00" fill="#fed7aa">APIs externes payantes / optionnelles</text>
</g>
<g id="clust5" class="cluster">
<title>cluster_free</title>
<path fill="#0f172a" stroke="#ca8a04" stroke-dasharray="5,2" d="M1468.08,-1496C1468.08,-1496 1713.08,-1496 1713.08,-1496 1719.08,-1496 1725.08,-1502 1725.08,-1508 1725.08,-1508 1725.08,-1842 1725.08,-1842 1725.08,-1848 1719.08,-1854 1713.08,-1854 1713.08,-1854 1468.08,-1854 1468.08,-1854 1462.08,-1854 1456.08,-1848 1456.08,-1842 1456.08,-1842 1456.08,-1508 1456.08,-1508 1456.08,-1502 1462.08,-1496 1468.08,-1496"/>
<text text-anchor="middle" x="1590.58" y="-1830.8" font-family="Arial" font-size="24.00" fill="#fef3c7">APIs gratuites / fallback</text>
</g>
<g id="clust6" class="cluster">
<title>cluster_storage</title>
<path fill="#0f172a" stroke="#7c3aed" stroke-dasharray="5,2" d="M1495.08,-8C1495.08,-8 1685.08,-8 1685.08,-8 1691.08,-8 1697.08,-14 1697.08,-20 1697.08,-20 1697.08,-490 1697.08,-490 1697.08,-496 1691.08,-502 1685.08,-502 1685.08,-502 1495.08,-502 1495.08,-502 1489.08,-502 1483.08,-496 1483.08,-490 1483.08,-490 1483.08,-20 1483.08,-20 1483.08,-14 1489.08,-8 1495.08,-8"/>
<text text-anchor="middle" x="1590.08" y="-478.8" font-family="Arial" font-size="24.00" fill="#ede9fe">Stockage / fichiers</text>
</g>
<!-- utilisateur -->
<g id="node1" class="node">
<title>utilisateur</title>
<ellipse fill="#ffffff" stroke="#111827" cx="98.29" cy="-355" rx="98.08" ry="31.23"/>
<text text-anchor="middle" x="98.29" y="-364.2" font-family="Arial" font-size="11.00" fill="#111827">UTILISATEUR</text>
<text text-anchor="middle" x="98.29" y="-352.2" font-family="Arial" font-size="11.00" fill="#111827">Commandes CLI</text>
<text text-anchor="middle" x="98.29" y="-340.2" font-family="Arial" font-size="11.00" fill="#111827">Validation AVANT/APRÈS</text>
</g>
<!-- orchestrateur -->
<g id="node2" class="node">
<title>orchestrateur</title>
<path fill="#1e3a5f" stroke="#e5e7eb" stroke-width="2.2" d="M492.58,-1645C492.58,-1645 335.58,-1645 335.58,-1645 329.58,-1645 323.58,-1639 323.58,-1633 323.58,-1633 323.58,-1613 323.58,-1613 323.58,-1607 329.58,-1601 335.58,-1601 335.58,-1601 492.58,-1601 492.58,-1601 498.58,-1601 504.58,-1607 504.58,-1613 504.58,-1613 504.58,-1633 504.58,-1633 504.58,-1639 498.58,-1645 492.58,-1645"/>
<text text-anchor="middle" x="414.08" y="-1632.2" font-family="Arial" font-size="11.00" fill="#f8fafc">ORCHESTRATEUR</text>
<text text-anchor="middle" x="414.08" y="-1620.2" font-family="Arial" font-size="11.00" fill="#f8fafc">SKILL.md</text>
<text text-anchor="middle" x="414.08" y="-1608.2" font-family="Arial" font-size="11.00" fill="#f8fafc">routing • profil • dispatch • schedule</text>
</g>
<!-- utilisateur&#45;&gt;orchestrateur -->
<g id="edge1" class="edge">
<title>utilisateur&#45;&gt;orchestrateur</title>
<path fill="none" stroke="#cbd5e1" d="M169.27,-376.56C246.94,-376.56 360.58,-376.56 360.58,-376.56 360.58,-376.56 360.58,-1593.84 360.58,-1593.84"/>
<polygon fill="#cbd5e1" stroke="#cbd5e1" points="358.13,-1593.84 360.58,-1600.84 363.03,-1593.84 358.13,-1593.84"/>
<text text-anchor="middle" x="260.08" y="-951.8" font-family="Arial" font-size="9.00" fill="#e2e8f0">1. commande CLI</text>
</g>
<!-- apply_fixes -->
<g id="node14" class="node">
<title>apply_fixes</title>
<path fill="#16a34a" stroke="#e5e7eb" d="M797.08,-335C797.08,-335 683.08,-335 683.08,-335 677.08,-335 671.08,-329 671.08,-323 671.08,-323 671.08,-311 671.08,-311 671.08,-305 677.08,-299 683.08,-299 683.08,-299 797.08,-299 797.08,-299 803.08,-299 809.08,-305 809.08,-311 809.08,-311 809.08,-323 809.08,-323 809.08,-329 803.08,-335 797.08,-335"/>
<text text-anchor="middle" x="740.08" y="-320.2" font-family="Arial" font-size="11.00" fill="#f8fafc">B2 apply&#45;fixes</text>
<text text-anchor="middle" x="740.08" y="-308.2" font-family="Arial" font-size="11.00" fill="#f8fafc">preview • sélection • patch</text>
</g>
<!-- utilisateur&#45;&gt;apply_fixes -->
<g id="edge2" class="edge">
<title>utilisateur&#45;&gt;apply_fixes</title>
<path fill="none" stroke="#cbd5e1" d="M151.96,-327.59C151.96,-327.59 663.94,-327.59 663.94,-327.59"/>
<polygon fill="#cbd5e1" stroke="#cbd5e1" points="663.94,-330.04 670.94,-327.59 663.94,-325.14 663.94,-330.04"/>
<polygon fill="#cbd5e1" stroke="#cbd5e1" points="151.96,-325.14 144.96,-327.59 151.96,-330.04 151.96,-325.14"/>
<text text-anchor="middle" x="414.08" y="-330.8" font-family="Arial" font-size="9.00" fill="#e2e8f0">validation par fix</text>
</g>
<!-- audit_seo -->
<g id="node3" class="node">
<title>audit_seo</title>
<path fill="#e5e7eb" stroke="#e5e7eb" d="M770.58,-2016C770.58,-2016 709.58,-2016 709.58,-2016 703.58,-2016 697.58,-2010 697.58,-2004 697.58,-2004 697.58,-1992 697.58,-1992 697.58,-1986 703.58,-1980 709.58,-1980 709.58,-1980 770.58,-1980 770.58,-1980 776.58,-1980 782.58,-1986 782.58,-1992 782.58,-1992 782.58,-2004 782.58,-2004 782.58,-2010 776.58,-2016 770.58,-2016"/>
<text text-anchor="middle" x="740.08" y="-2001.2" font-family="Arial" font-size="11.00" fill="#f8fafc">A1 audit&#45;seo</text>
<text text-anchor="middle" x="740.08" y="-1989.2" font-family="Arial" font-size="11.00" fill="#f8fafc">SEO technique</text>
</g>
<!-- orchestrateur&#45;&gt;audit_seo -->
<g id="edge4" class="edge">
<title>orchestrateur&#45;&gt;audit_seo</title>
<path fill="none" stroke="#cbd5e1" d="M375.58,-1645.06C375.58,-1725.44 375.58,-1998 375.58,-1998 375.58,-1998 690.55,-1998 690.55,-1998"/>
<polygon fill="#cbd5e1" stroke="#cbd5e1" points="690.55,-2000.45 697.55,-1998 690.55,-1995.55 690.55,-2000.45"/>
<text text-anchor="middle" x="583.08" y="-1979.8" font-family="Arial" font-size="9.00" fill="#e2e8f0">2. dispatch profile JSON</text>
</g>
<!-- audit_geo -->
<g id="node4" class="node">
<title>audit_geo</title>
<path fill="#e5e7eb" stroke="#e5e7eb" d="M776.58,-1812C776.58,-1812 703.58,-1812 703.58,-1812 697.58,-1812 691.58,-1806 691.58,-1800 691.58,-1800 691.58,-1788 691.58,-1788 691.58,-1782 697.58,-1776 703.58,-1776 703.58,-1776 776.58,-1776 776.58,-1776 782.58,-1776 788.58,-1782 788.58,-1788 788.58,-1788 788.58,-1800 788.58,-1800 788.58,-1806 782.58,-1812 776.58,-1812"/>
<text text-anchor="middle" x="740.08" y="-1797.2" font-family="Arial" font-size="11.00" fill="#f8fafc">A2 audit&#45;geo</text>
<text text-anchor="middle" x="740.08" y="-1785.2" font-family="Arial" font-size="11.00" fill="#f8fafc">GEO / citabilité IA</text>
</g>
<!-- orchestrateur&#45;&gt;audit_geo -->
<g id="edge5" class="edge">
<title>orchestrateur&#45;&gt;audit_geo</title>
<path fill="none" stroke="#cbd5e1" d="M453.58,-1645.01C453.58,-1691.19 453.58,-1794 453.58,-1794 453.58,-1794 684.47,-1794 684.47,-1794"/>
<polygon fill="#cbd5e1" stroke="#cbd5e1" points="684.47,-1796.45 691.47,-1794 684.47,-1791.55 684.47,-1796.45"/>
</g>
<!-- audit_aeo -->
<g id="node5" class="node">
<title>audit_aeo</title>
<path fill="#e5e7eb" stroke="#e5e7eb" d="M787.08,-1540C787.08,-1540 693.08,-1540 693.08,-1540 687.08,-1540 681.08,-1534 681.08,-1528 681.08,-1528 681.08,-1516 681.08,-1516 681.08,-1510 687.08,-1504 693.08,-1504 693.08,-1504 787.08,-1504 787.08,-1504 793.08,-1504 799.08,-1510 799.08,-1516 799.08,-1516 799.08,-1528 799.08,-1528 799.08,-1534 793.08,-1540 787.08,-1540"/>
<text text-anchor="middle" x="740.08" y="-1525.2" font-family="Arial" font-size="11.00" fill="#f8fafc">A3 audit&#45;aeo</text>
<text text-anchor="middle" x="740.08" y="-1513.2" font-family="Arial" font-size="11.00" fill="#f8fafc">AEO / snippets / Q&amp;R</text>
</g>
<!-- orchestrateur&#45;&gt;audit_aeo -->
<g id="edge6" class="edge">
<title>orchestrateur&#45;&gt;audit_aeo</title>
<path fill="none" stroke="#cbd5e1" d="M504.81,-1603.33C584.08,-1603.33 686.58,-1603.33 686.58,-1603.33 686.58,-1603.33 686.58,-1547.05 686.58,-1547.05"/>
<polygon fill="#cbd5e1" stroke="#cbd5e1" points="689.03,-1547.05 686.58,-1540.05 684.13,-1547.05 689.03,-1547.05"/>
</g>
<!-- audit_comp -->
<g id="node6" class="node">
<title>audit_comp</title>
<path fill="#e5e7eb" stroke="#e5e7eb" d="M784.08,-1948C784.08,-1948 696.08,-1948 696.08,-1948 690.08,-1948 684.08,-1942 684.08,-1936 684.08,-1936 684.08,-1924 684.08,-1924 684.08,-1918 690.08,-1912 696.08,-1912 696.08,-1912 784.08,-1912 784.08,-1912 790.08,-1912 796.08,-1918 796.08,-1924 796.08,-1924 796.08,-1936 796.08,-1936 796.08,-1942 790.08,-1948 784.08,-1948"/>
<text text-anchor="middle" x="740.08" y="-1933.2" font-family="Arial" font-size="11.00" fill="#f8fafc">A4 audit&#45;competitors</text>
<text text-anchor="middle" x="740.08" y="-1921.2" font-family="Arial" font-size="11.00" fill="#f8fafc">benchmark SERP</text>
</g>
<!-- orchestrateur&#45;&gt;audit_comp -->
<g id="edge7" class="edge">
<title>orchestrateur&#45;&gt;audit_comp</title>
<path fill="none" stroke="#cbd5e1" d="M401.58,-1645.08C401.58,-1715.47 401.58,-1930 401.58,-1930 401.58,-1930 676.8,-1930 676.8,-1930"/>
<polygon fill="#cbd5e1" stroke="#cbd5e1" points="676.8,-1932.45 683.8,-1930 676.8,-1927.55 676.8,-1932.45"/>
</g>
<!-- audit_pages -->
<g id="node7" class="node">
<title>audit_pages</title>
<path fill="#e5e7eb" stroke="#e5e7eb" d="M777.08,-1880C777.08,-1880 703.08,-1880 703.08,-1880 697.08,-1880 691.08,-1874 691.08,-1868 691.08,-1868 691.08,-1856 691.08,-1856 691.08,-1850 697.08,-1844 703.08,-1844 703.08,-1844 777.08,-1844 777.08,-1844 783.08,-1844 789.08,-1850 789.08,-1856 789.08,-1856 789.08,-1868 789.08,-1868 789.08,-1874 783.08,-1880 777.08,-1880"/>
<text text-anchor="middle" x="740.08" y="-1865.2" font-family="Arial" font-size="11.00" fill="#f8fafc">A5 audit&#45;pages</text>
<text text-anchor="middle" x="740.08" y="-1853.2" font-family="Arial" font-size="11.00" fill="#f8fafc">on&#45;page site&#45;wide</text>
</g>
<!-- orchestrateur&#45;&gt;audit_pages -->
<g id="edge8" class="edge">
<title>orchestrateur&#45;&gt;audit_pages</title>
<path fill="none" stroke="#cbd5e1" d="M427.58,-1645.06C427.58,-1704.22 427.58,-1862 427.58,-1862 427.58,-1862 683.9,-1862 683.9,-1862"/>
<polygon fill="#cbd5e1" stroke="#cbd5e1" points="683.9,-1864.45 690.9,-1862 683.9,-1859.55 683.9,-1864.45"/>
</g>
<!-- audit_meta -->
<g id="node8" class="node">
<title>audit_meta</title>
<path fill="#e5e7eb" stroke="#e5e7eb" d="M778.58,-1744C778.58,-1744 701.58,-1744 701.58,-1744 695.58,-1744 689.58,-1738 689.58,-1732 689.58,-1732 689.58,-1720 689.58,-1720 689.58,-1714 695.58,-1708 701.58,-1708 701.58,-1708 778.58,-1708 778.58,-1708 784.58,-1708 790.58,-1714 790.58,-1720 790.58,-1720 790.58,-1732 790.58,-1732 790.58,-1738 784.58,-1744 778.58,-1744"/>
<text text-anchor="middle" x="740.08" y="-1729.2" font-family="Arial" font-size="11.00" fill="#f8fafc">A6 audit&#45;metadata</text>
<text text-anchor="middle" x="740.08" y="-1717.2" font-family="Arial" font-size="11.00" fill="#f8fafc">titles • meta • OG</text>
</g>
<!-- orchestrateur&#45;&gt;audit_meta -->
<g id="edge9" class="edge">
<title>orchestrateur&#45;&gt;audit_meta</title>
<path fill="none" stroke="#cbd5e1" d="M479.58,-1645.1C479.58,-1675.36 479.58,-1726 479.58,-1726 479.58,-1726 682.54,-1726 682.54,-1726"/>
<polygon fill="#cbd5e1" stroke="#cbd5e1" points="682.54,-1728.45 689.54,-1726 682.54,-1723.55 682.54,-1728.45"/>
</g>
<!-- audit_schema_auto -->
<g id="node9" class="node">
<title>audit_schema_auto</title>
<path fill="#e5e7eb" stroke="#e5e7eb" d="M787.08,-1676C787.08,-1676 693.08,-1676 693.08,-1676 687.08,-1676 681.08,-1670 681.08,-1664 681.08,-1664 681.08,-1652 681.08,-1652 681.08,-1646 687.08,-1640 693.08,-1640 693.08,-1640 787.08,-1640 787.08,-1640 793.08,-1640 799.08,-1646 799.08,-1652 799.08,-1652 799.08,-1664 799.08,-1664 799.08,-1670 793.08,-1676 787.08,-1676"/>
<text text-anchor="middle" x="740.08" y="-1661.2" font-family="Arial" font-size="11.00" fill="#f8fafc">A7 audit&#45;schema&#45;auto</text>
<text text-anchor="middle" x="740.08" y="-1649.2" font-family="Arial" font-size="11.00" fill="#f8fafc">gaps JSON&#45;LD</text>
</g>
<!-- orchestrateur&#45;&gt;audit_schema_auto -->
<g id="edge10" class="edge">
<title>orchestrateur&#45;&gt;audit_schema_auto</title>
<path fill="none" stroke="#cbd5e1" d="M504.88,-1629.33C586.15,-1629.33 692.58,-1629.33 692.58,-1629.33 692.58,-1629.33 692.58,-1632.68 692.58,-1632.68"/>
<polygon fill="#cbd5e1" stroke="#cbd5e1" points="690.13,-1632.68 692.58,-1639.68 695.03,-1632.68 690.13,-1632.68"/>
</g>
<!-- audit_llms -->
<g id="node10" class="node">
<title>audit_llms</title>
<path fill="#e5e7eb" stroke="#e5e7eb" d="M770.58,-1608C770.58,-1608 709.58,-1608 709.58,-1608 703.58,-1608 697.58,-1602 697.58,-1596 697.58,-1596 697.58,-1584 697.58,-1584 697.58,-1578 703.58,-1572 709.58,-1572 709.58,-1572 770.58,-1572 770.58,-1572 776.58,-1572 782.58,-1578 782.58,-1584 782.58,-1584 782.58,-1596 782.58,-1596 782.58,-1602 776.58,-1608 770.58,-1608"/>
<text text-anchor="middle" x="740.08" y="-1593.2" font-family="Arial" font-size="11.00" fill="#f8fafc">A8 audit&#45;llms</text>
<text text-anchor="middle" x="740.08" y="-1581.2" font-family="Arial" font-size="11.00" fill="#f8fafc">llms.txt / robots</text>
</g>
<!-- orchestrateur&#45;&gt;audit_llms -->
<g id="edge11" class="edge">
<title>orchestrateur&#45;&gt;audit_llms</title>
<path fill="none" stroke="#cbd5e1" d="M504.88,-1605.67C504.88,-1605.67 690.38,-1605.67 690.38,-1605.67"/>
<polygon fill="#cbd5e1" stroke="#cbd5e1" points="690.38,-1608.12 697.38,-1605.67 690.38,-1603.22 690.38,-1608.12"/>
</g>
<!-- audit_keywords -->
<g id="node11" class="node">
<title>audit_keywords</title>
<path fill="#e5e7eb" stroke="#e5e7eb" d="M779.08,-2084C779.08,-2084 701.08,-2084 701.08,-2084 695.08,-2084 689.08,-2078 689.08,-2072 689.08,-2072 689.08,-2060 689.08,-2060 689.08,-2054 695.08,-2048 701.08,-2048 701.08,-2048 779.08,-2048 779.08,-2048 785.08,-2048 791.08,-2054 791.08,-2060 791.08,-2060 791.08,-2072 791.08,-2072 791.08,-2078 785.08,-2084 779.08,-2084"/>
<text text-anchor="middle" x="740.08" y="-2069.2" font-family="Arial" font-size="11.00" fill="#f8fafc">A9 audit&#45;keywords</text>
<text text-anchor="middle" x="740.08" y="-2057.2" font-family="Arial" font-size="11.00" fill="#f8fafc">quick wins • gaps</text>
</g>
<!-- orchestrateur&#45;&gt;audit_keywords -->
<g id="edge12" class="edge">
<title>orchestrateur&#45;&gt;audit_keywords</title>
<path fill="none" stroke="#cbd5e1" d="M349.58,-1645.27C349.58,-1735.86 349.58,-2072 349.58,-2072 349.58,-2072 682.02,-2072 682.02,-2072"/>
<polygon fill="#cbd5e1" stroke="#cbd5e1" points="682.02,-2074.45 689.02,-2072 682.02,-2069.55 682.02,-2074.45"/>
</g>
<!-- schema_strategy -->
<g id="node13" class="node">
<title>schema_strategy</title>
<path fill="#16a34a" stroke="#e5e7eb" d="M796.08,-403C796.08,-403 684.08,-403 684.08,-403 678.08,-403 672.08,-397 672.08,-391 672.08,-391 672.08,-379 672.08,-379 672.08,-373 678.08,-367 684.08,-367 684.08,-367 796.08,-367 796.08,-367 802.08,-367 808.08,-373 808.08,-379 808.08,-379 808.08,-391 808.08,-391 808.08,-397 802.08,-403 796.08,-403"/>
<text text-anchor="middle" x="740.08" y="-388.2" font-family="Arial" font-size="11.00" fill="#f8fafc">B1 audit&#45;schema&#45;strategy</text>
<text text-anchor="middle" x="740.08" y="-376.2" font-family="Arial" font-size="11.00" fill="#f8fafc">builder schema interactif</text>
</g>
<!-- orchestrateur&#45;&gt;schema_strategy -->
<g id="edge65" class="edge">
<title>orchestrateur&#45;&gt;schema_strategy</title>
<path fill="none" stroke="#cbd5e1" d="M468.58,-1600.89C468.58,-1435.24 468.58,-394.56 468.58,-394.56 468.58,-394.56 664.92,-394.56 664.92,-394.56"/>
<polygon fill="#cbd5e1" stroke="#cbd5e1" points="664.92,-397.01 671.92,-394.56 664.92,-392.11 664.92,-397.01"/>
<text text-anchor="middle" x="583.08" y="-494.8" font-family="Arial" font-size="9.00" fill="#e2e8f0">schema interactif</text>
</g>
<!-- orchestrateur&#45;&gt;apply_fixes -->
<g id="edge59" class="edge">
<title>orchestrateur&#45;&gt;apply_fixes</title>
<path fill="none" stroke="#cbd5e1" d="M396.58,-1600.85C396.58,-1430.22 396.58,-331.3 396.58,-331.3 396.58,-331.3 663.98,-331.3 663.98,-331.3"/>
<polygon fill="#cbd5e1" stroke="#cbd5e1" points="663.98,-333.75 670.98,-331.3 663.98,-328.85 663.98,-333.75"/>
<text text-anchor="middle" x="583.08" y="-426.8" font-family="Arial" font-size="9.00" fill="#e2e8f0">4. apply fixes.json + profil</text>
</g>
<!-- D1 -->
<g id="node38" class="node">
<title>D1</title>
<path fill="#7c3aed" stroke="#e5e7eb" d="M1635.58,-392C1635.58,-392 1544.58,-392 1544.58,-392 1538.58,-392 1532.58,-386 1532.58,-380 1532.58,-380 1532.58,-368 1532.58,-368 1532.58,-362 1538.58,-356 1544.58,-356 1544.58,-356 1635.58,-356 1635.58,-356 1641.58,-356 1647.58,-362 1647.58,-368 1647.58,-368 1647.58,-380 1647.58,-380 1647.58,-386 1641.58,-392 1635.58,-392"/>
<text text-anchor="middle" x="1590.08" y="-377.2" font-family="Arial" font-size="11.00" fill="#f8fafc">profiles/{domain}.json</text>
<text text-anchor="middle" x="1590.08" y="-365.2" font-family="Arial" font-size="11.00" fill="#f8fafc">profil site</text>
</g>
<!-- orchestrateur&#45;&gt;D1 -->
<g id="edge3" class="edge">
<title>orchestrateur&#45;&gt;D1</title>
<path fill="none" stroke="#cbd5e1" d="M432.58,-1593.84C432.58,-1593.84 432.58,-361.5 432.58,-361.5 432.58,-361.5 1525.28,-361.5 1525.28,-361.5"/>
<polygon fill="#cbd5e1" stroke="#cbd5e1" points="430.13,-1593.84 432.58,-1600.84 435.03,-1593.84 430.13,-1593.84"/>
<polygon fill="#cbd5e1" stroke="#cbd5e1" points="1525.28,-363.95 1532.28,-361.5 1525.28,-359.05 1525.28,-363.95"/>
<text text-anchor="middle" x="901.58" y="-778.8" font-family="Arial" font-size="9.00" fill="#e2e8f0">lit / crée profil</text>
</g>
<!-- reports -->
<g id="node15" class="node">
<title>reports</title>
<path fill="#16a34a" stroke="#e5e7eb" d="M1187.58,-471C1187.58,-471 1103.58,-471 1103.58,-471 1097.58,-471 1091.58,-465 1091.58,-459 1091.58,-459 1091.58,-447 1091.58,-447 1091.58,-441 1097.58,-435 1103.58,-435 1103.58,-435 1187.58,-435 1187.58,-435 1193.58,-435 1199.58,-441 1199.58,-447 1199.58,-447 1199.58,-459 1199.58,-459 1199.58,-465 1193.58,-471 1187.58,-471"/>
<text text-anchor="middle" x="1145.58" y="-456.2" font-family="Arial" font-size="11.00" fill="#f8fafc">B3 reports</text>
<text text-anchor="middle" x="1145.58" y="-444.2" font-family="Arial" font-size="11.00" fill="#f8fafc">agrégation • rapport</text>
</g>
<!-- audit_seo&#45;&gt;reports -->
<g id="edge45" class="edge">
<title>audit_seo&#45;&gt;reports</title>
<path fill="none" stroke="#cbd5e1" d="M782.6,-1989.67C841.45,-1989.67 940.58,-1989.67 940.58,-1989.67 940.58,-1989.67 940.58,-465 940.58,-465 940.58,-465 1084.45,-465 1084.45,-465"/>
<polygon fill="#cbd5e1" stroke="#cbd5e1" points="1084.45,-467.45 1091.45,-465 1084.45,-462.55 1084.45,-467.45"/>
<text text-anchor="middle" x="901.58" y="-692.8" font-family="Arial" font-size="9.00" fill="#e2e8f0">3. résultats JSON</text>
</g>
<!-- S1 -->
<g id="node17" class="node">
<title>S1</title>
<path fill="#6b7280" stroke="#e5e7eb" d="M1189.08,-1242C1189.08,-1242 1102.08,-1242 1102.08,-1242 1096.08,-1242 1090.08,-1236 1090.08,-1230 1090.08,-1230 1090.08,-1218 1090.08,-1218 1090.08,-1212 1096.08,-1206 1102.08,-1206 1102.08,-1206 1189.08,-1206 1189.08,-1206 1195.08,-1206 1201.08,-1212 1201.08,-1218 1201.08,-1218 1201.08,-1230 1201.08,-1230 1201.08,-1236 1195.08,-1242 1189.08,-1242"/>
<text text-anchor="middle" x="1145.58" y="-1221.2" font-family="Arial" font-size="11.00" fill="#f8fafc">pagespeed_client.py</text>
</g>
<!-- audit_seo&#45;&gt;S1 -->
<g id="edge15" class="edge">
<title>audit_seo&#45;&gt;S1</title>
<path fill="none" stroke="#cbd5e1" d="M782.67,-1994.5C855.12,-1994.5 994.58,-1994.5 994.58,-1994.5 994.58,-1994.5 994.58,-1233 994.58,-1233 994.58,-1233 1082.78,-1233 1082.78,-1233"/>
<polygon fill="#cbd5e1" stroke="#cbd5e1" points="1082.78,-1235.45 1089.78,-1233 1082.78,-1230.55 1082.78,-1235.45"/>
</g>
<!-- S2 -->
<g id="node18" class="node">
<title>S2</title>
<path fill="#6b7280" stroke="#e5e7eb" d="M1181.58,-1378C1181.58,-1378 1109.58,-1378 1109.58,-1378 1103.58,-1378 1097.58,-1372 1097.58,-1366 1097.58,-1366 1097.58,-1354 1097.58,-1354 1097.58,-1348 1103.58,-1342 1109.58,-1342 1109.58,-1342 1181.58,-1342 1181.58,-1342 1187.58,-1342 1193.58,-1348 1193.58,-1354 1193.58,-1354 1193.58,-1366 1193.58,-1366 1193.58,-1372 1187.58,-1378 1181.58,-1378"/>
<text text-anchor="middle" x="1145.58" y="-1357.2" font-family="Arial" font-size="11.00" fill="#f8fafc">gsc_connector.py</text>
</g>
<!-- audit_seo&#45;&gt;S2 -->
<g id="edge13" class="edge">
<title>audit_seo&#45;&gt;S2</title>
<path fill="none" stroke="#cbd5e1" d="M782.91,-1984.83C800.83,-1984.83 817.58,-1984.83 817.58,-1984.83 817.58,-1984.83 817.58,-1354 817.58,-1354 817.58,-1354 1090.53,-1354 1090.53,-1354"/>
<polygon fill="#cbd5e1" stroke="#cbd5e1" points="1090.53,-1356.45 1097.53,-1354 1090.53,-1351.55 1090.53,-1356.45"/>
</g>
<!-- S3 -->
<g id="node19" class="node">
<title>S3</title>
<path fill="#6b7280" stroke="#e5e7eb" d="M1188.08,-1310C1188.08,-1310 1103.08,-1310 1103.08,-1310 1097.08,-1310 1091.08,-1304 1091.08,-1298 1091.08,-1298 1091.08,-1286 1091.08,-1286 1091.08,-1280 1097.08,-1274 1103.08,-1274 1103.08,-1274 1188.08,-1274 1188.08,-1274 1194.08,-1274 1200.08,-1280 1200.08,-1286 1200.08,-1286 1200.08,-1298 1200.08,-1298 1200.08,-1304 1194.08,-1310 1188.08,-1310"/>
<text text-anchor="middle" x="1145.58" y="-1289.2" font-family="Arial" font-size="11.00" fill="#f8fafc">dataforseo_client.py</text>
</g>
<!-- audit_seo&#45;&gt;S3 -->
<g id="edge17" class="edge">
<title>audit_seo&#45;&gt;S3</title>
<path fill="none" stroke="#cbd5e1" d="M782.76,-1999.33C858.28,-1999.33 1007.58,-1999.33 1007.58,-1999.33 1007.58,-1999.33 1007.58,-1295.6 1007.58,-1295.6 1007.58,-1295.6 1084.03,-1295.6 1084.03,-1295.6"/>
<polygon fill="#cbd5e1" stroke="#cbd5e1" points="1084.03,-1298.05 1091.03,-1295.6 1084.03,-1293.15 1084.03,-1298.05"/>
</g>
<!-- E3 -->
<g id="node30" class="node">
<title>E3</title>
<path fill="#ea580c" stroke="#e5e7eb" d="M1628.58,-1446C1628.58,-1446 1551.58,-1446 1551.58,-1446 1545.58,-1446 1539.58,-1440 1539.58,-1434 1539.58,-1434 1539.58,-1422 1539.58,-1422 1539.58,-1416 1545.58,-1410 1551.58,-1410 1551.58,-1410 1628.58,-1410 1628.58,-1410 1634.58,-1410 1640.58,-1416 1640.58,-1422 1640.58,-1422 1640.58,-1434 1640.58,-1434 1640.58,-1440 1634.58,-1446 1628.58,-1446"/>
<text text-anchor="middle" x="1590.08" y="-1425.2" font-family="Arial" font-size="11.00" fill="#f8fafc">Google Analytics 4</text>
</g>
<!-- audit_seo&#45;&gt;E3 -->
<g id="edge19" class="edge">
<title>audit_seo&#45;&gt;E3</title>
<path fill="none" stroke="#cbd5e1" d="M783,-2004.17C924.09,-2004.17 1364.58,-2004.17 1364.58,-2004.17 1364.58,-2004.17 1364.58,-1428 1364.58,-1428 1364.58,-1428 1532.47,-1428 1532.47,-1428"/>
<polygon fill="#cbd5e1" stroke="#cbd5e1" points="1532.47,-1430.45 1539.47,-1428 1532.47,-1425.55 1532.47,-1430.45"/>
<text text-anchor="middle" x="1145.58" y="-1622.8" font-family="Arial" font-size="9.00" fill="#e2e8f0">trafic / analytics</text>
</g>
<!-- audit_geo&#45;&gt;reports -->
<g id="edge46" class="edge">
<title>audit_geo&#45;&gt;reports</title>
<path fill="none" stroke="#cbd5e1" d="M788.8,-1797.6C835.7,-1797.6 899.58,-1797.6 899.58,-1797.6 899.58,-1797.6 899.58,-456 899.58,-456 899.58,-456 1084.29,-456 1084.29,-456"/>
<polygon fill="#cbd5e1" stroke="#cbd5e1" points="1084.29,-458.45 1091.29,-456 1084.29,-453.55 1084.29,-458.45"/>
</g>
<!-- audit_geo&#45;&gt;S3 -->
<g id="edge21" class="edge">
<title>audit_geo&#45;&gt;S3</title>
<path fill="none" stroke="#cbd5e1" d="M788.74,-1790.4C803.35,-1790.4 815.58,-1790.4 815.58,-1790.4 815.58,-1790.4 815.58,-1281.2 815.58,-1281.2 815.58,-1281.2 1083.71,-1281.2 1083.71,-1281.2"/>
<polygon fill="#cbd5e1" stroke="#cbd5e1" points="1083.71,-1283.65 1090.71,-1281.2 1083.71,-1278.75 1083.71,-1283.65"/>
<text text-anchor="middle" x="901.58" y="-1709.8" font-family="Arial" font-size="9.00" fill="#e2e8f0">optionnel</text>
</g>
<!-- S5 -->
<g id="node21" class="node">
<title>S5</title>
<path fill="#6b7280" stroke="#e5e7eb" d="M1173.58,-1106C1173.58,-1106 1117.58,-1106 1117.58,-1106 1111.58,-1106 1105.58,-1100 1105.58,-1094 1105.58,-1094 1105.58,-1082 1105.58,-1082 1105.58,-1076 1111.58,-1070 1117.58,-1070 1117.58,-1070 1173.58,-1070 1173.58,-1070 1179.58,-1070 1185.58,-1076 1185.58,-1082 1185.58,-1082 1185.58,-1094 1185.58,-1094 1185.58,-1100 1179.58,-1106 1173.58,-1106"/>
<text text-anchor="middle" x="1145.58" y="-1085.2" font-family="Arial" font-size="11.00" fill="#f8fafc">fetch_page.py</text>
</g>
<!-- audit_geo&#45;&gt;S5 -->
<g id="edge20" class="edge">
<title>audit_geo&#45;&gt;S5</title>
<path fill="none" stroke="#cbd5e1" d="M788.77,-1783.2C799.42,-1783.2 807.58,-1783.2 807.58,-1783.2 807.58,-1783.2 807.58,-1100.86 807.58,-1100.86 807.58,-1100.86 1098.48,-1100.86 1098.48,-1100.86"/>
<polygon fill="#cbd5e1" stroke="#cbd5e1" points="1098.48,-1103.31 1105.48,-1100.86 1098.48,-1098.41 1098.48,-1103.31"/>
<text text-anchor="middle" x="901.58" y="-1318.8" font-family="Arial" font-size="9.00" fill="#e2e8f0">crawl llms/robots</text>
</g>
<!-- audit_aeo&#45;&gt;reports -->
<g id="edge47" class="edge">
<title>audit_aeo&#45;&gt;reports</title>
<path fill="none" stroke="#cbd5e1" d="M799.18,-1528C817.31,-1528 832.58,-1528 832.58,-1528 832.58,-1528 832.58,-441 832.58,-441 832.58,-441 1084.41,-441 1084.41,-441"/>
<polygon fill="#cbd5e1" stroke="#cbd5e1" points="1084.41,-443.45 1091.41,-441 1084.41,-438.55 1084.41,-443.45"/>
</g>
<!-- audit_aeo&#45;&gt;S5 -->
<g id="edge22" class="edge">
<title>audit_aeo&#45;&gt;S5</title>
<path fill="none" stroke="#cbd5e1" d="M740.58,-1503.86C740.58,-1420.74 740.58,-1080.29 740.58,-1080.29 740.58,-1080.29 1098.26,-1080.29 1098.26,-1080.29"/>
<polygon fill="#cbd5e1" stroke="#cbd5e1" points="1098.26,-1082.74 1105.26,-1080.29 1098.26,-1077.84 1098.26,-1082.74"/>
<text text-anchor="middle" x="901.58" y="-1146.8" font-family="Arial" font-size="9.00" fill="#e2e8f0">crawl contenus</text>
</g>
<!-- audit_free_serp -->
<g id="node12" class="node">
<title>audit_free_serp</title>
<path fill="#e5e7eb" stroke="#e5e7eb" d="M1191.08,-2045C1191.08,-2045 1100.08,-2045 1100.08,-2045 1094.08,-2045 1088.08,-2039 1088.08,-2033 1088.08,-2033 1088.08,-2021 1088.08,-2021 1088.08,-2015 1094.08,-2009 1100.08,-2009 1100.08,-2009 1191.08,-2009 1191.08,-2009 1197.08,-2009 1203.08,-2015 1203.08,-2021 1203.08,-2021 1203.08,-2033 1203.08,-2033 1203.08,-2039 1197.08,-2045 1191.08,-2045"/>
<text text-anchor="middle" x="1145.58" y="-2030.2" font-family="Arial" font-size="11.00" fill="#f8fafc">A10 audit&#45;free&#45;serp</text>
<text text-anchor="middle" x="1145.58" y="-2018.2" font-family="Arial" font-size="11.00" fill="#f8fafc">fallback SERP gratuit</text>
</g>
<!-- audit_comp&#45;&gt;audit_free_serp -->
<g id="edge25" class="edge">
<title>audit_comp&#45;&gt;audit_free_serp</title>
<path fill="none" stroke="#cbd5e1" d="M785.58,-1948.31C785.58,-1972.61 785.58,-2012.5 785.58,-2012.5 785.58,-2012.5 1080.74,-2012.5 1080.74,-2012.5"/>
<polygon fill="#cbd5e1" stroke="#cbd5e1" points="1080.74,-2014.95 1087.74,-2012.5 1080.74,-2010.05 1080.74,-2014.95"/>
<text text-anchor="middle" x="901.58" y="-2029.8" font-family="Arial" font-size="9.00" fill="#e2e8f0">fallback si pas DataForSEO</text>
</g>
<!-- audit_comp&#45;&gt;reports -->
<g id="edge48" class="edge">
<title>audit_comp&#45;&gt;reports</title>
<path fill="none" stroke="#cbd5e1" d="M796.28,-1939C851.2,-1939 926.58,-1939 926.58,-1939 926.58,-1939 926.58,-462 926.58,-462 926.58,-462 1084.44,-462 1084.44,-462"/>
<polygon fill="#cbd5e1" stroke="#cbd5e1" points="1084.44,-464.45 1091.44,-462 1084.44,-459.55 1084.44,-464.45"/>
</g>
<!-- audit_comp&#45;&gt;S1 -->
<g id="edge24" class="edge">
<title>audit_comp&#45;&gt;S1</title>
<path fill="none" stroke="#cbd5e1" d="M796.16,-1921C806.74,-1921 814.58,-1921 814.58,-1921 814.58,-1921 814.58,-1224 814.58,-1224 814.58,-1224 1082.8,-1224 1082.8,-1224"/>
<polygon fill="#cbd5e1" stroke="#cbd5e1" points="1082.8,-1226.45 1089.8,-1224 1082.8,-1221.55 1082.8,-1226.45"/>
<text text-anchor="middle" x="901.58" y="-1623.8" font-family="Arial" font-size="9.00" fill="#e2e8f0">PSI concurrents</text>
</g>
<!-- audit_comp&#45;&gt;S3 -->
<g id="edge23" class="edge">
<title>audit_comp&#45;&gt;S3</title>
<path fill="none" stroke="#cbd5e1" d="M796.48,-1930C807.94,-1930 816.58,-1930 816.58,-1930 816.58,-1930 816.58,-1288.4 816.58,-1288.4 816.58,-1288.4 1083.88,-1288.4 1083.88,-1288.4"/>
<polygon fill="#cbd5e1" stroke="#cbd5e1" points="1083.88,-1290.85 1090.88,-1288.4 1083.88,-1285.95 1083.88,-1290.85"/>
</g>
<!-- audit_pages&#45;&gt;reports -->
<g id="edge49" class="edge">
<title>audit_pages&#45;&gt;reports</title>
<path fill="none" stroke="#cbd5e1" d="M789.33,-1871C840.62,-1871 913.58,-1871 913.58,-1871 913.58,-1871 913.58,-459 913.58,-459 913.58,-459 1084.47,-459 1084.47,-459"/>
<polygon fill="#cbd5e1" stroke="#cbd5e1" points="1084.47,-461.45 1091.47,-459 1084.47,-456.55 1084.47,-461.45"/>
</g>
<!-- audit_pages&#45;&gt;S1 -->
<g id="edge27" class="edge">
<title>audit_pages&#45;&gt;S1</title>
<path fill="none" stroke="#cbd5e1" d="M789.1,-1862C802.58,-1862 813.58,-1862 813.58,-1862 813.58,-1862 813.58,-1215 813.58,-1215 813.58,-1215 1083.01,-1215 1083.01,-1215"/>
<polygon fill="#cbd5e1" stroke="#cbd5e1" points="1083.01,-1217.45 1090.01,-1215 1083.01,-1212.55 1083.01,-1217.45"/>
<text text-anchor="middle" x="901.58" y="-1576.8" font-family="Arial" font-size="9.00" fill="#e2e8f0">top N pages</text>
</g>
<!-- S6 -->
<g id="node22" class="node">
<title>S6</title>
<path fill="#6b7280" stroke="#e5e7eb" d="M1180.58,-1174C1180.58,-1174 1110.58,-1174 1110.58,-1174 1104.58,-1174 1098.58,-1168 1098.58,-1162 1098.58,-1162 1098.58,-1150 1098.58,-1150 1098.58,-1144 1104.58,-1138 1110.58,-1138 1110.58,-1138 1180.58,-1138 1180.58,-1138 1186.58,-1138 1192.58,-1144 1192.58,-1150 1192.58,-1150 1192.58,-1162 1192.58,-1162 1192.58,-1168 1186.58,-1174 1180.58,-1174"/>
<text text-anchor="middle" x="1145.58" y="-1153.2" font-family="Arial" font-size="11.00" fill="#f8fafc">fetch_sitemap.py</text>
</g>
<!-- audit_pages&#45;&gt;S6 -->
<g id="edge26" class="edge">
<title>audit_pages&#45;&gt;S6</title>
<path fill="none" stroke="#cbd5e1" d="M789.24,-1853C802.17,-1853 812.58,-1853 812.58,-1853 812.58,-1853 812.58,-1168 812.58,-1168 812.58,-1168 1091.57,-1168 1091.57,-1168"/>
<polygon fill="#cbd5e1" stroke="#cbd5e1" points="1091.57,-1170.45 1098.57,-1168 1091.57,-1165.55 1091.57,-1170.45"/>
<text text-anchor="middle" x="901.58" y="-1529.8" font-family="Arial" font-size="9.00" fill="#e2e8f0">énumère pages</text>
</g>
<!-- audit_meta&#45;&gt;reports -->
<g id="edge50" class="edge">
<title>audit_meta&#45;&gt;reports</title>
<path fill="none" stroke="#cbd5e1" d="M790.9,-1729.6C833.22,-1729.6 886.58,-1729.6 886.58,-1729.6 886.58,-1729.6 886.58,-453 886.58,-453 886.58,-453 1084.28,-453 1084.28,-453"/>
<polygon fill="#cbd5e1" stroke="#cbd5e1" points="1084.28,-455.45 1091.28,-453 1084.28,-450.55 1084.28,-455.45"/>
</g>
<!-- audit_meta&#45;&gt;S5 -->
<g id="edge28" class="edge">
<title>audit_meta&#45;&gt;S5</title>
<path fill="none" stroke="#cbd5e1" d="M790.82,-1715.2C799.92,-1715.2 806.58,-1715.2 806.58,-1715.2 806.58,-1715.2 806.58,-1095.71 806.58,-1095.71 806.58,-1095.71 1098.36,-1095.71 1098.36,-1095.71"/>
<polygon fill="#cbd5e1" stroke="#cbd5e1" points="1098.36,-1098.16 1105.36,-1095.71 1098.36,-1093.26 1098.36,-1098.16"/>
</g>
<!-- audit_meta&#45;&gt;S6 -->
<g id="edge29" class="edge">
<title>audit_meta&#45;&gt;S6</title>
<path fill="none" stroke="#cbd5e1" d="M790.89,-1722.4C802.54,-1722.4 811.58,-1722.4 811.58,-1722.4 811.58,-1722.4 811.58,-1162 811.58,-1162 811.58,-1162 1091.43,-1162 1091.43,-1162"/>
<polygon fill="#cbd5e1" stroke="#cbd5e1" points="1091.43,-1164.45 1098.43,-1162 1091.43,-1159.55 1091.43,-1164.45"/>
</g>
<!-- audit_schema_auto&#45;&gt;reports -->
<g id="edge51" class="edge">
<title>audit_schema_auto&#45;&gt;reports</title>
<path fill="none" stroke="#cbd5e1" d="M799.35,-1658C834.63,-1658 872.58,-1658 872.58,-1658 872.58,-1658 872.58,-450 872.58,-450 872.58,-450 1084.31,-450 1084.31,-450"/>
<polygon fill="#cbd5e1" stroke="#cbd5e1" points="1084.31,-452.45 1091.31,-450 1084.31,-447.55 1084.31,-452.45"/>
</g>
<!-- audit_schema_auto&#45;&gt;S5 -->
<g id="edge30" class="edge">
<title>audit_schema_auto&#45;&gt;S5</title>
<path fill="none" stroke="#cbd5e1" d="M799.53,-1646C803.27,-1646 805.58,-1646 805.58,-1646 805.58,-1646 805.58,-1090.57 805.58,-1090.57 805.58,-1090.57 1098.57,-1090.57 1098.57,-1090.57"/>
<polygon fill="#cbd5e1" stroke="#cbd5e1" points="1098.57,-1093.02 1105.57,-1090.57 1098.57,-1088.12 1098.57,-1093.02"/>
</g>
<!-- audit_schema_auto&#45;&gt;S6 -->
<g id="edge31" class="edge">
<title>audit_schema_auto&#45;&gt;S6</title>
<path fill="none" stroke="#cbd5e1" d="M799.25,-1652C806.03,-1652 810.58,-1652 810.58,-1652 810.58,-1652 810.58,-1156 810.58,-1156 810.58,-1156 1091.29,-1156 1091.29,-1156"/>
<polygon fill="#cbd5e1" stroke="#cbd5e1" points="1091.29,-1158.45 1098.29,-1156 1091.29,-1153.55 1091.29,-1158.45"/>
</g>
<!-- S7 -->
<g id="node23" class="node">
<title>S7</title>
<path fill="#6b7280" stroke="#e5e7eb" d="M1184.58,-970C1184.58,-970 1106.58,-970 1106.58,-970 1100.58,-970 1094.58,-964 1094.58,-958 1094.58,-958 1094.58,-946 1094.58,-946 1094.58,-940 1100.58,-934 1106.58,-934 1106.58,-934 1184.58,-934 1184.58,-934 1190.58,-934 1196.58,-940 1196.58,-946 1196.58,-946 1196.58,-958 1196.58,-958 1196.58,-964 1190.58,-970 1184.58,-970"/>
<text text-anchor="middle" x="1145.58" y="-949.2" font-family="Arial" font-size="11.00" fill="#f8fafc">schema_builder.py</text>
</g>
<!-- audit_schema_auto&#45;&gt;S7 -->
<g id="edge32" class="edge">
<title>audit_schema_auto&#45;&gt;S7</title>
<path fill="none" stroke="#cbd5e1" d="M799.22,-1664C870.43,-1664 980.58,-1664 980.58,-1664 980.58,-1664 980.58,-961 980.58,-961 980.58,-961 1087.27,-961 1087.27,-961"/>
<polygon fill="#cbd5e1" stroke="#cbd5e1" points="1087.27,-963.45 1094.27,-961 1087.27,-958.55 1087.27,-963.45"/>
<text text-anchor="middle" x="901.58" y="-1005.8" font-family="Arial" font-size="9.00" fill="#e2e8f0">génère JSON&#45;LD</text>
</g>
<!-- audit_llms&#45;&gt;reports -->
<g id="edge52" class="edge">
<title>audit_llms&#45;&gt;reports</title>
<path fill="none" stroke="#cbd5e1" d="M782.68,-1593.6C811.96,-1593.6 845.58,-1593.6 845.58,-1593.6 845.58,-1593.6 845.58,-444 845.58,-444 845.58,-444 1084.25,-444 1084.25,-444"/>
<polygon fill="#cbd5e1" stroke="#cbd5e1" points="1084.25,-446.45 1091.25,-444 1084.25,-441.55 1084.25,-446.45"/>
</g>
<!-- audit_llms&#45;&gt;S5 -->
<g id="edge34" class="edge">
<title>audit_llms&#45;&gt;S5</title>
<path fill="none" stroke="#cbd5e1" d="M782.74,-1579.2C794.73,-1579.2 804.58,-1579.2 804.58,-1579.2 804.58,-1579.2 804.58,-1085.43 804.58,-1085.43 804.58,-1085.43 1098.46,-1085.43 1098.46,-1085.43"/>
<polygon fill="#cbd5e1" stroke="#cbd5e1" points="1098.46,-1087.88 1105.46,-1085.43 1098.46,-1082.98 1098.46,-1087.88"/>
<text text-anchor="middle" x="901.58" y="-1193.8" font-family="Arial" font-size="9.00" fill="#e2e8f0">llms.txt / robots</text>
</g>
<!-- audit_llms&#45;&gt;S6 -->
<g id="edge35" class="edge">
<title>audit_llms&#45;&gt;S6</title>
<path fill="none" stroke="#cbd5e1" d="M782.9,-1586.4C797.21,-1586.4 809.58,-1586.4 809.58,-1586.4 809.58,-1586.4 809.58,-1150 809.58,-1150 809.58,-1150 1091.5,-1150 1091.5,-1150"/>
<polygon fill="#cbd5e1" stroke="#cbd5e1" points="1091.5,-1152.45 1098.5,-1150 1091.5,-1147.55 1091.5,-1152.45"/>
<text text-anchor="middle" x="901.58" y="-1404.8" font-family="Arial" font-size="9.00" fill="#e2e8f0">llms&#45;full.txt</text>
</g>
<!-- audit_keywords&#45;&gt;audit_free_serp -->
<g id="edge38" class="edge">
<title>audit_keywords&#45;&gt;audit_free_serp</title>
<path fill="none" stroke="#cbd5e1" d="M788.58,-2047.83C788.58,-2039.1 788.58,-2030.5 788.58,-2030.5 788.58,-2030.5 1080.82,-2030.5 1080.82,-2030.5"/>
<polygon fill="#cbd5e1" stroke="#cbd5e1" points="1080.82,-2032.95 1087.82,-2030.5 1080.82,-2028.05 1080.82,-2032.95"/>
<text text-anchor="middle" x="901.58" y="-2076.8" font-family="Arial" font-size="9.00" fill="#e2e8f0">fallback gratuit</text>
</g>
<!-- audit_keywords&#45;&gt;reports -->
<g id="edge53" class="edge">
<title>audit_keywords&#45;&gt;reports</title>
<path fill="none" stroke="#cbd5e1" d="M791.21,-2055.2C854.38,-2055.2 953.58,-2055.2 953.58,-2055.2 953.58,-2055.2 953.58,-468 953.58,-468 953.58,-468 1084.33,-468 1084.33,-468"/>
<polygon fill="#cbd5e1" stroke="#cbd5e1" points="1084.33,-470.45 1091.33,-468 1084.33,-465.55 1084.33,-470.45"/>
</g>
<!-- content_elementor -->
<g id="node16" class="node">
<title>content_elementor</title>
<path fill="#16a34a" stroke="#e5e7eb" d="M806.58,-471C806.58,-471 673.58,-471 673.58,-471 667.58,-471 661.58,-465 661.58,-459 661.58,-459 661.58,-447 661.58,-447 661.58,-441 667.58,-435 673.58,-435 673.58,-435 806.58,-435 806.58,-435 812.58,-435 818.58,-441 818.58,-447 818.58,-447 818.58,-459 818.58,-459 818.58,-465 812.58,-471 806.58,-471"/>
<text text-anchor="middle" x="740.08" y="-456.2" font-family="Arial" font-size="11.00" fill="#f8fafc">B4 content&#45;elementor</text>
<text text-anchor="middle" x="740.08" y="-444.2" font-family="Arial" font-size="11.00" fill="#f8fafc">création pages WP/Elementor</text>
</g>
<!-- audit_keywords&#45;&gt;content_elementor -->
<g id="edge68" class="edge">
<title>audit_keywords&#45;&gt;content_elementor</title>
<path fill="none" stroke="#cbd5e1" d="M688.87,-2060C677.41,-2060 668.58,-2060 668.58,-2060 668.58,-2060 668.58,-478.05 668.58,-478.05"/>
<polygon fill="#cbd5e1" stroke="#cbd5e1" points="671.03,-478.05 668.58,-471.05 666.13,-478.05 671.03,-478.05"/>
<text text-anchor="middle" x="583.08" y="-1626.8" font-family="Arial" font-size="9.00" fill="#e2e8f0">5. keyword_brief</text>
<text text-anchor="middle" x="583.08" y="-1616.8" font-family="Arial" font-size="9.00" fill="#e2e8f0">pages manquantes</text>
</g>
<!-- audit_keywords&#45;&gt;S2 -->
<g id="edge36" class="edge">
<title>audit_keywords&#45;&gt;S2</title>
<path fill="none" stroke="#cbd5e1" d="M791.37,-2069.6C875.75,-2069.6 1034.58,-2069.6 1034.58,-2069.6 1034.58,-2069.6 1034.58,-1366 1034.58,-1366 1034.58,-1366 1090.54,-1366 1090.54,-1366"/>
<polygon fill="#cbd5e1" stroke="#cbd5e1" points="1090.54,-1368.45 1097.54,-1366 1090.54,-1363.55 1090.54,-1368.45"/>
</g>
<!-- audit_keywords&#45;&gt;S3 -->
<g id="edge37" class="edge">
<title>audit_keywords&#45;&gt;S3</title>
<path fill="none" stroke="#cbd5e1" d="M791.38,-2062.4C872.57,-2062.4 1021.58,-2062.4 1021.58,-2062.4 1021.58,-2062.4 1021.58,-1302.8 1021.58,-1302.8 1021.58,-1302.8 1083.83,-1302.8 1083.83,-1302.8"/>
<polygon fill="#cbd5e1" stroke="#cbd5e1" points="1083.83,-1305.25 1090.83,-1302.8 1083.83,-1300.35 1083.83,-1305.25"/>
</g>
<!-- F5 -->
<g id="node37" class="node">
<title>F5</title>
<path fill="#ca8a04" stroke="#e5e7eb" d="M1642.08,-1540C1642.08,-1540 1538.08,-1540 1538.08,-1540 1532.08,-1540 1526.08,-1534 1526.08,-1528 1526.08,-1528 1526.08,-1516 1526.08,-1516 1526.08,-1510 1532.08,-1504 1538.08,-1504 1538.08,-1504 1642.08,-1504 1642.08,-1504 1648.08,-1504 1654.08,-1510 1654.08,-1516 1654.08,-1516 1654.08,-1528 1654.08,-1528 1654.08,-1534 1648.08,-1540 1642.08,-1540"/>
<text text-anchor="middle" x="1590.08" y="-1525.2" font-family="Arial" font-size="11.00" fill="#f8fafc">WebSearch / WebFetch</text>
<text text-anchor="middle" x="1590.08" y="-1513.2" font-family="Arial" font-size="11.00" fill="#f8fafc">Claude natif</text>
</g>
<!-- audit_keywords&#45;&gt;F5 -->
<g id="edge39" class="edge">
<title>audit_keywords&#45;&gt;F5</title>
<path fill="none" stroke="#cbd5e1" d="M791.27,-2076.8C966.22,-2076.8 1529.58,-2076.8 1529.58,-2076.8 1529.58,-2076.8 1529.58,-1547.14 1529.58,-1547.14"/>
<polygon fill="#cbd5e1" stroke="#cbd5e1" points="1532.03,-1547.14 1529.58,-1540.14 1527.13,-1547.14 1532.03,-1547.14"/>
<text text-anchor="middle" x="1145.58" y="-1878.8" font-family="Arial" font-size="9.00" fill="#e2e8f0">PAA / web</text>
</g>
<!-- S4 -->
<g id="node20" class="node">
<title>S4</title>
<path fill="#6b7280" stroke="#e5e7eb" d="M1185.08,-1446C1185.08,-1446 1106.08,-1446 1106.08,-1446 1100.08,-1446 1094.08,-1440 1094.08,-1434 1094.08,-1434 1094.08,-1422 1094.08,-1422 1094.08,-1416 1100.08,-1410 1106.08,-1410 1106.08,-1410 1185.08,-1410 1185.08,-1410 1191.08,-1410 1197.08,-1416 1197.08,-1422 1197.08,-1422 1197.08,-1434 1197.08,-1434 1197.08,-1440 1191.08,-1446 1185.08,-1446"/>
<text text-anchor="middle" x="1145.58" y="-1425.2" font-family="Arial" font-size="11.00" fill="#f8fafc">free_serp_client.py</text>
</g>
<!-- audit_free_serp&#45;&gt;S4 -->
<g id="edge40" class="edge">
<title>audit_free_serp&#45;&gt;S4</title>
<path fill="none" stroke="#cbd5e1" d="M1111.58,-2008.75C1111.58,-2008.75 1111.58,-1453.11 1111.58,-1453.11"/>
<polygon fill="#cbd5e1" stroke="#cbd5e1" points="1114.03,-1453.11 1111.58,-1446.11 1109.13,-1453.11 1114.03,-1453.11"/>
</g>
<!-- schema_strategy&#45;&gt;S7 -->
<g id="edge66" class="edge">
<title>schema_strategy&#45;&gt;S7</title>
<path fill="none" stroke="#cbd5e1" d="M808.16,-397.5C899.01,-397.5 1048.58,-397.5 1048.58,-397.5 1048.58,-397.5 1048.58,-943 1048.58,-943 1048.58,-943 1087.52,-943 1087.52,-943"/>
<polygon fill="#cbd5e1" stroke="#cbd5e1" points="1087.52,-945.45 1094.52,-943 1087.52,-940.55 1087.52,-945.45"/>
</g>
<!-- D5 -->
<g id="node42" class="node">
<title>D5</title>
<path fill="#7c3aed" stroke="#e5e7eb" d="M1629.08,-188C1629.08,-188 1551.08,-188 1551.08,-188 1545.08,-188 1539.08,-182 1539.08,-176 1539.08,-176 1539.08,-164 1539.08,-164 1539.08,-158 1545.08,-152 1551.08,-152 1551.08,-152 1629.08,-152 1629.08,-152 1635.08,-152 1641.08,-158 1641.08,-164 1641.08,-164 1641.08,-176 1641.08,-176 1641.08,-182 1635.08,-188 1629.08,-188"/>
<text text-anchor="middle" x="1590.08" y="-173.2" font-family="Arial" font-size="11.00" fill="#f8fafc">schemas/</text>
<text text-anchor="middle" x="1590.08" y="-161.2" font-family="Arial" font-size="11.00" fill="#f8fafc">JSON&#45;LD générés</text>
</g>
<!-- schema_strategy&#45;&gt;D5 -->
<g id="edge67" class="edge">
<title>schema_strategy&#45;&gt;D5</title>
<path fill="none" stroke="#cbd5e1" d="M808.34,-379.5C812.81,-379.5 815.58,-379.5 815.58,-379.5 815.58,-379.5 815.58,-164 815.58,-164 815.58,-164 1531.96,-164 1531.96,-164"/>
<polygon fill="#cbd5e1" stroke="#cbd5e1" points="1531.96,-166.45 1538.96,-164 1531.96,-161.55 1531.96,-166.45"/>
</g>
<!-- apply_fixes&#45;&gt;reports -->
<g id="edge64" class="edge">
<title>apply_fixes&#45;&gt;reports</title>
<path fill="none" stroke="#cbd5e1" d="M809.5,-328.4C918.77,-328.4 1118.58,-328.4 1118.58,-328.4 1118.58,-328.4 1118.58,-427.88 1118.58,-427.88"/>
<polygon fill="#cbd5e1" stroke="#cbd5e1" points="1116.13,-427.88 1118.58,-434.88 1121.03,-427.88 1116.13,-427.88"/>
<text text-anchor="middle" x="901.58" y="-333.8" font-family="Arial" font-size="9.00" fill="#e2e8f0">régénère rapport</text>
</g>
<!-- S9 -->
<g id="node25" class="node">
<title>S9</title>
<path fill="#6b7280" stroke="#e5e7eb" d="M1174.08,-834C1174.08,-834 1117.08,-834 1117.08,-834 1111.08,-834 1105.08,-828 1105.08,-822 1105.08,-822 1105.08,-810 1105.08,-810 1105.08,-804 1111.08,-798 1117.08,-798 1117.08,-798 1174.08,-798 1174.08,-798 1180.08,-798 1186.08,-804 1186.08,-810 1186.08,-810 1186.08,-822 1186.08,-822 1186.08,-828 1180.08,-834 1174.08,-834"/>
<text text-anchor="middle" x="1145.58" y="-813.2" font-family="Arial" font-size="11.00" fill="#f8fafc">preview_fix.py</text>
</g>
<!-- apply_fixes&#45;&gt;S9 -->
<g id="edge60" class="edge">
<title>apply_fixes&#45;&gt;S9</title>
<path fill="none" stroke="#cbd5e1" d="M809.18,-330.6C907.4,-330.6 1075.58,-330.6 1075.58,-330.6 1075.58,-330.6 1075.58,-816 1075.58,-816 1075.58,-816 1097.86,-816 1097.86,-816"/>
<polygon fill="#cbd5e1" stroke="#cbd5e1" points="1097.86,-818.45 1104.86,-816 1097.86,-813.55 1097.86,-818.45"/>
<text text-anchor="middle" x="901.58" y="-825.8" font-family="Arial" font-size="9.00" fill="#e2e8f0">état production AVANT</text>
</g>
<!-- S10 -->
<g id="node26" class="node">
<title>S10</title>
<path fill="#6b7280" stroke="#e5e7eb" d="M1174.58,-902C1174.58,-902 1116.58,-902 1116.58,-902 1110.58,-902 1104.58,-896 1104.58,-890 1104.58,-890 1104.58,-878 1104.58,-878 1104.58,-872 1110.58,-866 1116.58,-866 1116.58,-866 1174.58,-866 1174.58,-866 1180.58,-866 1186.58,-872 1186.58,-878 1186.58,-878 1186.58,-890 1186.58,-890 1186.58,-896 1180.58,-902 1174.58,-902"/>
<text text-anchor="middle" x="1145.58" y="-881.2" font-family="Arial" font-size="11.00" fill="#f8fafc">select_fixes.py</text>
</g>
<!-- apply_fixes&#45;&gt;S10 -->
<g id="edge61" class="edge">
<title>apply_fixes&#45;&gt;S10</title>
<path fill="none" stroke="#cbd5e1" d="M809.44,-332.8C903.95,-332.8 1061.58,-332.8 1061.58,-332.8 1061.58,-332.8 1061.58,-884 1061.58,-884 1061.58,-884 1097.56,-884 1097.56,-884"/>
<polygon fill="#cbd5e1" stroke="#cbd5e1" points="1097.56,-886.45 1104.56,-884 1097.56,-881.55 1097.56,-886.45"/>
<text text-anchor="middle" x="901.58" y="-872.8" font-family="Arial" font-size="9.00" fill="#e2e8f0">sélection interactive</text>
</g>
<!-- E5 -->
<g id="node32" class="node">
<title>E5</title>
<path fill="#ea580c" stroke="#e5e7eb" d="M1620.08,-1174C1620.08,-1174 1560.08,-1174 1560.08,-1174 1554.08,-1174 1548.08,-1168 1548.08,-1162 1548.08,-1162 1548.08,-1150 1548.08,-1150 1548.08,-1144 1554.08,-1138 1560.08,-1138 1560.08,-1138 1620.08,-1138 1620.08,-1138 1626.08,-1138 1632.08,-1144 1632.08,-1150 1632.08,-1150 1632.08,-1162 1632.08,-1162 1632.08,-1168 1626.08,-1174 1620.08,-1174"/>
<text text-anchor="middle" x="1590.08" y="-1159.2" font-family="Arial" font-size="11.00" fill="#f8fafc">WP REST API</text>
<text text-anchor="middle" x="1590.08" y="-1147.2" font-family="Arial" font-size="11.00" fill="#f8fafc">WordPress</text>
</g>
<!-- apply_fixes&#45;&gt;E5 -->
<g id="edge62" class="edge">
<title>apply_fixes&#45;&gt;E5</title>
<path fill="none" stroke="#cbd5e1" d="M809.31,-326.2C955.97,-326.2 1284.58,-326.2 1284.58,-326.2 1284.58,-326.2 1284.58,-1156 1284.58,-1156 1284.58,-1156 1540.92,-1156 1540.92,-1156"/>
<polygon fill="#cbd5e1" stroke="#cbd5e1" points="1540.92,-1158.45 1547.92,-1156 1540.92,-1153.55 1540.92,-1158.45"/>
<text text-anchor="middle" x="1145.58" y="-246.8" font-family="Arial" font-size="9.00" fill="#e2e8f0">applique meta_patch / JSON&#45;LD</text>
</g>
<!-- D6 -->
<g id="node43" class="node">
<title>D6</title>
<path fill="#7c3aed" stroke="#e5e7eb" d="M1608.58,-52C1608.58,-52 1571.58,-52 1571.58,-52 1565.58,-52 1559.58,-46 1559.58,-40 1559.58,-40 1559.58,-28 1559.58,-28 1559.58,-22 1565.58,-16 1571.58,-16 1571.58,-16 1608.58,-16 1608.58,-16 1614.58,-16 1620.58,-22 1620.58,-28 1620.58,-28 1620.58,-40 1620.58,-40 1620.58,-46 1614.58,-52 1608.58,-52"/>
<text text-anchor="middle" x="1590.08" y="-37.2" font-family="Arial" font-size="11.00" fill="#f8fafc">patches/</text>
<text text-anchor="middle" x="1590.08" y="-25.2" font-family="Arial" font-size="11.00" fill="#f8fafc">patch files</text>
</g>
<!-- apply_fixes&#45;&gt;D6 -->
<g id="edge63" class="edge">
<title>apply_fixes&#45;&gt;D6</title>
<path fill="none" stroke="#cbd5e1" d="M740.58,-298.87C740.58,-236.41 740.58,-34 740.58,-34 740.58,-34 1552.34,-34 1552.34,-34"/>
<polygon fill="#cbd5e1" stroke="#cbd5e1" points="1552.34,-36.45 1559.34,-34 1552.34,-31.55 1552.34,-36.45"/>
<text text-anchor="middle" x="1145.58" y="-30.8" font-family="Arial" font-size="9.00" fill="#e2e8f0">sauvegarde patches</text>
</g>
<!-- reports&#45;&gt;orchestrateur -->
<g id="edge58" class="edge">
<title>reports&#45;&gt;orchestrateur</title>
<path fill="none" stroke="#cbd5e1" d="M1091.45,-447C1008.53,-447 859.58,-447 859.58,-447 859.58,-447 859.58,-1618.67 859.58,-1618.67 859.58,-1618.67 511.77,-1618.67 511.77,-1618.67"/>
<polygon fill="#cbd5e1" stroke="#cbd5e1" points="511.77,-1616.22 504.77,-1618.67 511.77,-1621.12 511.77,-1616.22"/>
<text text-anchor="middle" x="740.08" y="-537.8" font-family="Arial" font-size="9.00" fill="#e2e8f0">score terminal</text>
</g>
<!-- S11 -->
<g id="node27" class="node">
<title>S11</title>
<path fill="#6b7280" stroke="#e5e7eb" d="M1171.58,-766C1171.58,-766 1119.58,-766 1119.58,-766 1113.58,-766 1107.58,-760 1107.58,-754 1107.58,-754 1107.58,-742 1107.58,-742 1107.58,-736 1113.58,-730 1119.58,-730 1119.58,-730 1171.58,-730 1171.58,-730 1177.58,-730 1183.58,-736 1183.58,-742 1183.58,-742 1183.58,-754 1183.58,-754 1183.58,-760 1177.58,-766 1171.58,-766"/>
<text text-anchor="middle" x="1145.58" y="-745.2" font-family="Arial" font-size="11.00" fill="#f8fafc">pdf_report.py</text>
</g>
<!-- reports&#45;&gt;S11 -->
<g id="edge56" class="edge">
<title>reports&#45;&gt;S11</title>
<path fill="none" stroke="#cbd5e1" d="M1145.58,-471.01C1145.58,-471.01 1145.58,-722.85 1145.58,-722.85"/>
<polygon fill="#cbd5e1" stroke="#cbd5e1" points="1143.13,-722.85 1145.58,-729.85 1148.03,-722.85 1143.13,-722.85"/>
</g>
<!-- D2 -->
<g id="node39" class="node">
<title>D2</title>
<path fill="#7c3aed" stroke="#e5e7eb" d="M1625.58,-324C1625.58,-324 1554.58,-324 1554.58,-324 1548.58,-324 1542.58,-318 1542.58,-312 1542.58,-312 1542.58,-300 1542.58,-300 1542.58,-294 1548.58,-288 1554.58,-288 1554.58,-288 1625.58,-288 1625.58,-288 1631.58,-288 1637.58,-294 1637.58,-300 1637.58,-300 1637.58,-312 1637.58,-312 1637.58,-318 1631.58,-324 1625.58,-324"/>
<text text-anchor="middle" x="1590.08" y="-309.2" font-family="Arial" font-size="11.00" fill="#f8fafc">audit.json</text>
<text text-anchor="middle" x="1590.08" y="-297.2" font-family="Arial" font-size="11.00" fill="#f8fafc">résultats agrégés</text>
</g>
<!-- reports&#45;&gt;D2 -->
<g id="edge54" class="edge">
<title>reports&#45;&gt;D2</title>
<path fill="none" stroke="#cbd5e1" d="M1172.58,-434.79C1172.58,-396.57 1172.58,-311.5 1172.58,-311.5 1172.58,-311.5 1535.18,-311.5 1535.18,-311.5"/>
<polygon fill="#cbd5e1" stroke="#cbd5e1" points="1535.18,-313.95 1542.18,-311.5 1535.18,-309.05 1535.18,-313.95"/>
<text text-anchor="middle" x="1352.58" y="-326.8" font-family="Arial" font-size="9.00" fill="#e2e8f0">merge</text>
</g>
<!-- D3 -->
<g id="node40" class="node">
<title>D3</title>
<path fill="#7c3aed" stroke="#e5e7eb" d="M1631.08,-256C1631.08,-256 1549.08,-256 1549.08,-256 1543.08,-256 1537.08,-250 1537.08,-244 1537.08,-244 1537.08,-232 1537.08,-232 1537.08,-226 1543.08,-220 1549.08,-220 1549.08,-220 1631.08,-220 1631.08,-220 1637.08,-220 1643.08,-226 1643.08,-232 1643.08,-232 1643.08,-244 1643.08,-244 1643.08,-250 1637.08,-256 1631.08,-256"/>
<text text-anchor="middle" x="1590.08" y="-241.2" font-family="Arial" font-size="11.00" fill="#f8fafc">fixes.json</text>
<text text-anchor="middle" x="1590.08" y="-229.2" font-family="Arial" font-size="11.00" fill="#f8fafc">correctifs P0/P1/P2</text>
</g>
<!-- reports&#45;&gt;D3 -->
<g id="edge55" class="edge">
<title>reports&#45;&gt;D3</title>
<path fill="none" stroke="#cbd5e1" d="M1145.58,-434.67C1145.58,-382.68 1145.58,-238 1145.58,-238 1145.58,-238 1529.9,-238 1529.9,-238"/>
<polygon fill="#cbd5e1" stroke="#cbd5e1" points="1529.9,-240.45 1536.9,-238 1529.9,-235.55 1529.9,-240.45"/>
<text text-anchor="middle" x="1352.58" y="-268.8" font-family="Arial" font-size="9.00" fill="#e2e8f0">liste fixes</text>
</g>
<!-- content_elementor&#45;&gt;audit_llms -->
<g id="edge76" class="edge">
<title>content_elementor&#45;&gt;audit_llms</title>
<path fill="none" stroke="#cbd5e1" d="M674.58,-471.26C674.58,-617.06 674.58,-1586.5 674.58,-1586.5 674.58,-1586.5 690.48,-1586.5 690.48,-1586.5"/>
<polygon fill="#cbd5e1" stroke="#cbd5e1" points="690.48,-1588.95 697.48,-1586.5 690.48,-1584.05 690.48,-1588.95"/>
<text text-anchor="middle" x="583.08" y="-1146.8" font-family="Arial" font-size="9.00" fill="#e2e8f0">mise à jour llms.txt</text>
</g>
<!-- content_elementor&#45;&gt;S5 -->
<g id="edge69" class="edge">
<title>content_elementor&#45;&gt;S5</title>
<path fill="none" stroke="#cbd5e1" d="M802.58,-471.28C802.58,-574.05 802.58,-1075.14 802.58,-1075.14 802.58,-1075.14 1098.56,-1075.14 1098.56,-1075.14"/>
<polygon fill="#cbd5e1" stroke="#cbd5e1" points="1098.56,-1077.59 1105.56,-1075.14 1098.56,-1072.69 1098.56,-1077.59"/>
<text text-anchor="middle" x="901.58" y="-1099.8" font-family="Arial" font-size="9.00" fill="#e2e8f0">analyse site</text>
</g>
<!-- content_elementor&#45;&gt;S6 -->
<g id="edge70" class="edge">
<title>content_elementor&#45;&gt;S6</title>
<path fill="none" stroke="#cbd5e1" d="M801.58,-471.13C801.58,-580.15 801.58,-1144 801.58,-1144 801.58,-1144 1091.47,-1144 1091.47,-1144"/>
<polygon fill="#cbd5e1" stroke="#cbd5e1" points="1091.47,-1146.45 1098.47,-1144 1091.47,-1141.55 1091.47,-1146.45"/>
</g>
<!-- content_elementor&#45;&gt;S7 -->
<g id="edge72" class="edge">
<title>content_elementor&#45;&gt;S7</title>
<path fill="none" stroke="#cbd5e1" d="M808.58,-471.05C808.58,-560.51 808.58,-952 808.58,-952 808.58,-952 1087.39,-952 1087.39,-952"/>
<polygon fill="#cbd5e1" stroke="#cbd5e1" points="1087.39,-954.45 1094.39,-952 1087.39,-949.55 1087.39,-954.45"/>
<text text-anchor="middle" x="901.58" y="-958.8" font-family="Arial" font-size="9.00" fill="#e2e8f0">schemas associés</text>
</g>
<!-- S8 -->
<g id="node24" class="node">
<title>S8</title>
<path fill="#6b7280" stroke="#e5e7eb" d="M1189.58,-1038C1189.58,-1038 1101.58,-1038 1101.58,-1038 1095.58,-1038 1089.58,-1032 1089.58,-1026 1089.58,-1026 1089.58,-1014 1089.58,-1014 1089.58,-1008 1095.58,-1002 1101.58,-1002 1101.58,-1002 1189.58,-1002 1189.58,-1002 1195.58,-1002 1201.58,-1008 1201.58,-1014 1201.58,-1014 1201.58,-1026 1201.58,-1026 1201.58,-1032 1195.58,-1038 1189.58,-1038"/>
<text text-anchor="middle" x="1145.58" y="-1017.2" font-family="Arial" font-size="11.00" fill="#f8fafc">elementor_builder.py</text>
</g>
<!-- content_elementor&#45;&gt;S8 -->
<g id="edge71" class="edge">
<title>content_elementor&#45;&gt;S8</title>
<path fill="none" stroke="#cbd5e1" d="M803.58,-471.22C803.58,-568.27 803.58,-1020 803.58,-1020 803.58,-1020 1082.48,-1020 1082.48,-1020"/>
<polygon fill="#cbd5e1" stroke="#cbd5e1" points="1082.48,-1022.45 1089.48,-1020 1082.48,-1017.55 1082.48,-1022.45"/>
<text text-anchor="middle" x="901.58" y="-1052.8" font-family="Arial" font-size="9.00" fill="#e2e8f0">JSON Elementor</text>
</g>
<!-- content_elementor&#45;&gt;E5 -->
<g id="edge73" class="edge">
<title>content_elementor&#45;&gt;E5</title>
<path fill="none" stroke="#cbd5e1" d="M800.58,-471.09C800.58,-510.47 800.58,-600.5 800.58,-600.5 800.58,-600.5 1590.58,-600.5 1590.58,-600.5 1590.58,-600.5 1590.58,-1130.83 1590.58,-1130.83"/>
<polygon fill="#cbd5e1" stroke="#cbd5e1" points="1588.13,-1130.83 1590.58,-1137.83 1593.03,-1130.83 1588.13,-1130.83"/>
<text text-anchor="middle" x="1145.58" y="-321.8" font-family="Arial" font-size="9.00" fill="#e2e8f0">publication page</text>
</g>
<!-- content_elementor&#45;&gt;F5 -->
<g id="edge74" class="edge">
<title>content_elementor&#45;&gt;F5</title>
<path fill="none" stroke="#cbd5e1" d="M818.69,-438C884.44,-438 967.58,-438 967.58,-438 967.58,-438 967.58,-1516 967.58,-1516 967.58,-1516 1518.8,-1516 1518.8,-1516"/>
<polygon fill="#cbd5e1" stroke="#cbd5e1" points="1518.8,-1518.45 1525.8,-1516 1518.8,-1513.55 1518.8,-1518.45"/>
<text text-anchor="middle" x="1145.58" y="-395.8" font-family="Arial" font-size="9.00" fill="#e2e8f0">scraping concurrents</text>
</g>
<!-- D7 -->
<g id="node44" class="node">
<title>D7</title>
<path fill="#7c3aed" stroke="#e5e7eb" d="M1624.08,-120C1624.08,-120 1556.08,-120 1556.08,-120 1550.08,-120 1544.08,-114 1544.08,-108 1544.08,-108 1544.08,-96 1544.08,-96 1544.08,-90 1550.08,-84 1556.08,-84 1556.08,-84 1624.08,-84 1624.08,-84 1630.08,-84 1636.08,-90 1636.08,-96 1636.08,-96 1636.08,-108 1636.08,-108 1636.08,-114 1630.08,-120 1624.08,-120"/>
<text text-anchor="middle" x="1590.08" y="-105.2" font-family="Arial" font-size="11.00" fill="#f8fafc">content/</text>
<text text-anchor="middle" x="1590.08" y="-93.2" font-family="Arial" font-size="11.00" fill="#f8fafc">drafts Elementor</text>
</g>
<!-- content_elementor&#45;&gt;D7 -->
<g id="edge75" class="edge">
<title>content_elementor&#45;&gt;D7</title>
<path fill="none" stroke="#cbd5e1" d="M812.58,-434.62C812.58,-362.4 812.58,-102 812.58,-102 812.58,-102 1537.06,-102 1537.06,-102"/>
<polygon fill="#cbd5e1" stroke="#cbd5e1" points="1537.06,-104.45 1544.06,-102 1537.06,-99.55 1537.06,-104.45"/>
<text text-anchor="middle" x="1145.58" y="-104.8" font-family="Arial" font-size="9.00" fill="#e2e8f0">draft + JSON + schemas</text>
</g>
<!-- E1 -->
<g id="node28" class="node">
<title>E1</title>
<path fill="#ea580c" stroke="#e5e7eb" d="M1632.58,-1242C1632.58,-1242 1547.58,-1242 1547.58,-1242 1541.58,-1242 1535.58,-1236 1535.58,-1230 1535.58,-1230 1535.58,-1218 1535.58,-1218 1535.58,-1212 1541.58,-1206 1547.58,-1206 1547.58,-1206 1632.58,-1206 1632.58,-1206 1638.58,-1206 1644.58,-1212 1644.58,-1218 1644.58,-1218 1644.58,-1230 1644.58,-1230 1644.58,-1236 1638.58,-1242 1632.58,-1242"/>
<text text-anchor="middle" x="1590.08" y="-1221.2" font-family="Arial" font-size="11.00" fill="#f8fafc">PageSpeed Insights</text>
</g>
<!-- S1&#45;&gt;E1 -->
<g id="edge16" class="edge">
<title>S1&#45;&gt;E1</title>
<path fill="none" stroke="#cbd5e1" d="M1201.42,-1224C1201.42,-1224 1528.5,-1224 1528.5,-1224"/>
<polygon fill="#cbd5e1" stroke="#cbd5e1" points="1528.5,-1226.45 1535.5,-1224 1528.5,-1221.55 1528.5,-1226.45"/>
</g>
<!-- E2 -->
<g id="node29" class="node">
<title>E2</title>
<path fill="#ea580c" stroke="#e5e7eb" d="M1641.58,-1378C1641.58,-1378 1538.58,-1378 1538.58,-1378 1532.58,-1378 1526.58,-1372 1526.58,-1366 1526.58,-1366 1526.58,-1354 1526.58,-1354 1526.58,-1348 1532.58,-1342 1538.58,-1342 1538.58,-1342 1641.58,-1342 1641.58,-1342 1647.58,-1342 1653.58,-1348 1653.58,-1354 1653.58,-1354 1653.58,-1366 1653.58,-1366 1653.58,-1372 1647.58,-1378 1641.58,-1378"/>
<text text-anchor="middle" x="1590.08" y="-1357.2" font-family="Arial" font-size="11.00" fill="#f8fafc">Google Search Console</text>
</g>
<!-- S2&#45;&gt;E2 -->
<g id="edge14" class="edge">
<title>S2&#45;&gt;E2</title>
<path fill="none" stroke="#cbd5e1" d="M1193.99,-1360C1193.99,-1360 1519.37,-1360 1519.37,-1360"/>
<polygon fill="#cbd5e1" stroke="#cbd5e1" points="1519.37,-1362.45 1526.37,-1360 1519.37,-1357.55 1519.37,-1362.45"/>
</g>
<!-- E4 -->
<g id="node31" class="node">
<title>E4</title>
<path fill="#ea580c" stroke="#e5e7eb" d="M1616.08,-1310C1616.08,-1310 1564.08,-1310 1564.08,-1310 1558.08,-1310 1552.08,-1304 1552.08,-1298 1552.08,-1298 1552.08,-1286 1552.08,-1286 1552.08,-1280 1558.08,-1274 1564.08,-1274 1564.08,-1274 1616.08,-1274 1616.08,-1274 1622.08,-1274 1628.08,-1280 1628.08,-1286 1628.08,-1286 1628.08,-1298 1628.08,-1298 1628.08,-1304 1622.08,-1310 1616.08,-1310"/>
<text text-anchor="middle" x="1590.08" y="-1289.2" font-family="Arial" font-size="11.00" fill="#f8fafc">DataForSEO</text>
</g>
<!-- S3&#45;&gt;E4 -->
<g id="edge18" class="edge">
<title>S3&#45;&gt;E4</title>
<path fill="none" stroke="#cbd5e1" d="M1200.08,-1292C1200.08,-1292 1545.03,-1292 1545.03,-1292"/>
<polygon fill="#cbd5e1" stroke="#cbd5e1" points="1545.03,-1294.45 1552.03,-1292 1545.03,-1289.55 1545.03,-1294.45"/>
</g>
<!-- F1 -->
<g id="node33" class="node">
<title>F1</title>
<path fill="#ca8a04" stroke="#e5e7eb" d="M1635.08,-1744C1635.08,-1744 1545.08,-1744 1545.08,-1744 1539.08,-1744 1533.08,-1738 1533.08,-1732 1533.08,-1732 1533.08,-1720 1533.08,-1720 1533.08,-1714 1539.08,-1708 1545.08,-1708 1545.08,-1708 1635.08,-1708 1635.08,-1708 1641.08,-1708 1647.08,-1714 1647.08,-1720 1647.08,-1720 1647.08,-1732 1647.08,-1732 1647.08,-1738 1641.08,-1744 1635.08,-1744"/>
<text text-anchor="middle" x="1590.08" y="-1723.2" font-family="Arial" font-size="11.00" fill="#f8fafc">DuckDuckGo Search</text>
</g>
<!-- S4&#45;&gt;F1 -->
<g id="edge41" class="edge">
<title>S4&#45;&gt;F1</title>
<path fill="none" stroke="#cbd5e1" d="M1145.58,-1446.39C1145.58,-1512.87 1145.58,-1736.8 1145.58,-1736.8 1145.58,-1736.8 1525.88,-1736.8 1525.88,-1736.8"/>
<polygon fill="#cbd5e1" stroke="#cbd5e1" points="1525.88,-1739.25 1532.88,-1736.8 1525.88,-1734.35 1525.88,-1739.25"/>
</g>
<!-- F2 -->
<g id="node34" class="node">
<title>F2</title>
<path fill="#ca8a04" stroke="#e5e7eb" d="M1610.58,-1608C1610.58,-1608 1569.58,-1608 1569.58,-1608 1563.58,-1608 1557.58,-1602 1557.58,-1596 1557.58,-1596 1557.58,-1584 1557.58,-1584 1557.58,-1578 1563.58,-1572 1569.58,-1572 1569.58,-1572 1610.58,-1572 1610.58,-1572 1616.58,-1572 1622.58,-1578 1622.58,-1584 1622.58,-1584 1622.58,-1596 1622.58,-1596 1622.58,-1602 1616.58,-1608 1610.58,-1608"/>
<text text-anchor="middle" x="1590.08" y="-1587.2" font-family="Arial" font-size="11.00" fill="#f8fafc">Serper.dev</text>
</g>
<!-- S4&#45;&gt;F2 -->
<g id="edge42" class="edge">
<title>S4&#45;&gt;F2</title>
<path fill="none" stroke="#cbd5e1" d="M1180.58,-1446.17C1180.58,-1490.53 1180.58,-1600.8 1180.58,-1600.8 1180.58,-1600.8 1550.26,-1600.8 1550.26,-1600.8"/>
<polygon fill="#cbd5e1" stroke="#cbd5e1" points="1550.26,-1603.25 1557.26,-1600.8 1550.26,-1598.35 1550.26,-1603.25"/>
</g>
<!-- F3 -->
<g id="node35" class="node">
<title>F3</title>
<path fill="#ca8a04" stroke="#e5e7eb" d="M1623.08,-1812C1623.08,-1812 1557.08,-1812 1557.08,-1812 1551.08,-1812 1545.08,-1806 1545.08,-1800 1545.08,-1800 1545.08,-1788 1545.08,-1788 1545.08,-1782 1551.08,-1776 1557.08,-1776 1557.08,-1776 1623.08,-1776 1623.08,-1776 1629.08,-1776 1635.08,-1782 1635.08,-1788 1635.08,-1788 1635.08,-1800 1635.08,-1800 1635.08,-1806 1629.08,-1812 1623.08,-1812"/>
<text text-anchor="middle" x="1590.08" y="-1791.2" font-family="Arial" font-size="11.00" fill="#f8fafc">OpenPageRank</text>
</g>
<!-- S4&#45;&gt;F3 -->
<g id="edge43" class="edge">
<title>S4&#45;&gt;F3</title>
<path fill="none" stroke="#cbd5e1" d="M1128.58,-1446.17C1128.58,-1521.44 1128.58,-1804.8 1128.58,-1804.8 1128.58,-1804.8 1537.98,-1804.8 1537.98,-1804.8"/>
<polygon fill="#cbd5e1" stroke="#cbd5e1" points="1537.98,-1807.25 1544.98,-1804.8 1537.98,-1802.35 1537.98,-1807.25"/>
</g>
<!-- F4 -->
<g id="node36" class="node">
<title>F4</title>
<path fill="#ca8a04" stroke="#e5e7eb" d="M1605.08,-1676C1605.08,-1676 1575.08,-1676 1575.08,-1676 1569.08,-1676 1563.08,-1670 1563.08,-1664 1563.08,-1664 1563.08,-1652 1563.08,-1652 1563.08,-1646 1569.08,-1640 1575.08,-1640 1575.08,-1640 1605.08,-1640 1605.08,-1640 1611.08,-1640 1617.08,-1646 1617.08,-1652 1617.08,-1652 1617.08,-1664 1617.08,-1664 1617.08,-1670 1611.08,-1676 1605.08,-1676"/>
<text text-anchor="middle" x="1590.08" y="-1655.2" font-family="Arial" font-size="11.00" fill="#f8fafc">pytrends</text>
</g>
<!-- S4&#45;&gt;F4 -->
<g id="edge44" class="edge">
<title>S4&#45;&gt;F4</title>
<path fill="none" stroke="#cbd5e1" d="M1163.58,-1446.19C1163.58,-1502.47 1163.58,-1670 1163.58,-1670 1163.58,-1670 1556.07,-1670 1556.07,-1670"/>
<polygon fill="#cbd5e1" stroke="#cbd5e1" points="1556.07,-1672.45 1563.07,-1670 1556.07,-1667.55 1556.07,-1672.45"/>
</g>
<!-- S7&#45;&gt;D5 -->
<g id="edge33" class="edge">
<title>S7&#45;&gt;D5</title>
<path fill="none" stroke="#cbd5e1" d="M1196.81,-952C1282.49,-952 1445.58,-952 1445.58,-952 1445.58,-952 1445.58,-176 1445.58,-176 1445.58,-176 1531.72,-176 1531.72,-176"/>
<polygon fill="#cbd5e1" stroke="#cbd5e1" points="1531.72,-178.45 1538.72,-176 1531.72,-173.55 1531.72,-178.45"/>
</g>
<!-- D4 -->
<g id="node41" class="node">
<title>D4</title>
<path fill="#7c3aed" stroke="#e5e7eb" d="M1637.08,-460C1637.08,-460 1543.08,-460 1543.08,-460 1537.08,-460 1531.08,-454 1531.08,-448 1531.08,-448 1531.08,-436 1531.08,-436 1531.08,-430 1537.08,-424 1543.08,-424 1543.08,-424 1637.08,-424 1637.08,-424 1643.08,-424 1649.08,-430 1649.08,-436 1649.08,-436 1649.08,-448 1649.08,-448 1649.08,-454 1643.08,-460 1637.08,-460"/>
<text text-anchor="middle" x="1590.08" y="-439.2" font-family="Arial" font-size="11.00" fill="#f8fafc">report.md + report.pdf</text>
</g>
<!-- S11&#45;&gt;D4 -->
<g id="edge57" class="edge">
<title>S11&#45;&gt;D4</title>
<path fill="none" stroke="#cbd5e1" d="M1183.64,-748C1283.01,-748 1542.58,-748 1542.58,-748 1542.58,-748 1542.58,-467.23 1542.58,-467.23"/>
<polygon fill="#cbd5e1" stroke="#cbd5e1" points="1545.03,-467.23 1542.58,-460.23 1540.13,-467.23 1545.03,-467.23"/>
</g>
</g>
</svg>
