<?xml version="1.0" encoding="UTF-8" standalone="no"?>
<!DOCTYPE svg PUBLIC "-//W3C//DTD SVG 1.1//EN"
 "http://www.w3.org/Graphics/SVG/1.1/DTD/svg11.dtd">
<!-- Generated by graphviz version 2.42.4 (0)
 -->
<!-- Title: G Pages: 1 -->
<svg width="2004pt" height="1161pt"
 viewBox="0.00 0.00 2003.76 1161.00" xmlns="http://www.w3.org/2000/svg" xmlns:xlink="http://www.w3.org/1999/xlink">
<g id="graph0" class="graph" transform="scale(1 1) rotate(0) translate(32.4 1128.6)">
<title>G</title>
<polygon fill="#0f172a" stroke="transparent" points="-32.4,32.4 -32.4,-1128.6 1971.36,-1128.6 1971.36,32.4 -32.4,32.4"/>
<text text-anchor="middle" x="969.48" y="-1071.4" font-family="Arial" font-size="26.00" fill="#f8fafc">Diagramme de communication — Agent orchestrateur SEO&#45;GEO&#45;AEO</text>
<!-- user -->
<g id="node1" class="node">
<title>user</title>
<ellipse fill="#ffffff" stroke="#111827" stroke-width="2" cx="1569.96" cy="-1019.6" rx="122.16" ry="39.7"/>
<text text-anchor="middle" x="1569.96" y="-1030.2" font-family="Arial" font-size="13.00" fill="#111827">UTILISATEUR</text>
<text text-anchor="middle" x="1569.96" y="-1016.2" font-family="Arial" font-size="13.00" fill="#111827">Commandes CLI</text>
<text text-anchor="middle" x="1569.96" y="-1002.2" font-family="Arial" font-size="13.00" fill="#111827">Validation AVANT/APRÈS</text>
</g>
<!-- orch -->
<g id="node2" class="node">
<title>orch</title>
<path fill="#1e3a5f" stroke="#e5e7eb" stroke-width="2.4" d="M1419.46,-906C1419.46,-906 1026.46,-906 1026.46,-906 1020.46,-906 1014.46,-900 1014.46,-894 1014.46,-894 1014.46,-862 1014.46,-862 1014.46,-856 1020.46,-850 1026.46,-850 1026.46,-850 1419.46,-850 1419.46,-850 1425.46,-850 1431.46,-856 1431.46,-862 1431.46,-862 1431.46,-894 1431.46,-894 1431.46,-900 1425.46,-906 1419.46,-906"/>
<text text-anchor="middle" x="1222.96" y="-888.6" font-family="Arial" font-size="13.00" fill="#f8fafc">ORCHESTRATEUR — SKILL.md</text>
<text text-anchor="middle" x="1222.96" y="-874.6" font-family="Arial" font-size="13.00" fill="#f8fafc">Routing des commandes • profil site • dispatch parallèle • schedule</text>
<text text-anchor="middle" x="1222.96" y="-860.6" font-family="Arial" font-size="13.00" fill="#f8fafc">Menus : run / apply / schema / metadata / llms / keywords / content</text>
</g>
<!-- user&#45;&gt;orch -->
<g id="edge1" class="edge">
<title>user&#45;&gt;orch</title>
<path fill="none" stroke="#cbd5e1" stroke-width="1.2" d="M1494.66,-988.31C1436.39,-964.86 1356.07,-932.55 1297.88,-909.14"/>
<polygon fill="#cbd5e1" stroke="#cbd5e1" stroke-width="1.2" points="1298.65,-906.43 1290.18,-906.04 1296.56,-911.63 1298.65,-906.43"/>
<text text-anchor="middle" x="1479.46" y="-940.2" font-family="Arial" font-size="11.00" fill="#e2e8f0">1. commande CLI /seo&#45;geo&#45;aeo …</text>
</g>
<!-- apply -->
<g id="node10" class="node">
<title>apply</title>
<path fill="#16a34a" stroke="#e5e7eb" stroke-width="2" d="M1451.46,-344C1451.46,-344 1156.46,-344 1156.46,-344 1150.46,-344 1144.46,-338 1144.46,-332 1144.46,-332 1144.46,-286 1144.46,-286 1144.46,-280 1150.46,-274 1156.46,-274 1156.46,-274 1451.46,-274 1451.46,-274 1457.46,-274 1463.46,-280 1463.46,-286 1463.46,-286 1463.46,-332 1463.46,-332 1463.46,-338 1457.46,-344 1451.46,-344"/>
<text text-anchor="middle" x="1303.96" y="-326.6" font-family="Arial" font-size="13.00" fill="#f8fafc">B2 — apply&#45;fixes</text>
<text text-anchor="middle" x="1303.96" y="-312.6" font-family="Arial" font-size="13.00" fill="#f8fafc">Preview état production AVANT</text>
<text text-anchor="middle" x="1303.96" y="-298.6" font-family="Arial" font-size="13.00" fill="#f8fafc">Sélection interactive des correctifs</text>
<text text-anchor="middle" x="1303.96" y="-284.6" font-family="Arial" font-size="13.00" fill="#f8fafc">Application meta_patch / JSON&#45;LD via WordPress</text>
</g>
<!-- user&#45;&gt;apply -->
<g id="edge15" class="edge">
<title>user&#45;&gt;apply</title>
<path fill="none" stroke="#cbd5e1" stroke-width="1.2" d="M1676.74,-993.72C1733.2,-973.54 1790.96,-938.39 1790.96,-879 1790.96,-879 1790.96,-879 1790.96,-459 1790.96,-390.5 1612.55,-350.34 1471.7,-329.3"/>
<polygon fill="#cbd5e1" stroke="#cbd5e1" stroke-width="1.2" points="1675.79,-991.08 1669.15,-996.34 1677.62,-996.37 1675.79,-991.08"/>
<polygon fill="#cbd5e1" stroke="#cbd5e1" stroke-width="1.2" points="1472.08,-326.53 1463.76,-328.13 1471.26,-332.07 1472.08,-326.53"/>
<text text-anchor="middle" x="1864.96" y="-666.2" font-family="Arial" font-size="11.00" fill="#e2e8f0">9. approuve / ignore chaque fix</text>
</g>
<!-- profile -->
<g id="node3" class="node">
<title>profile</title>
<path fill="#7c3aed" stroke="#e5e7eb" d="M1257.96,-762C1257.96,-762 933.96,-762 933.96,-762 927.96,-762 921.96,-756 921.96,-750 921.96,-750 921.96,-732 921.96,-732 921.96,-726 927.96,-720 933.96,-720 933.96,-720 1257.96,-720 1257.96,-720 1263.96,-720 1269.96,-726 1269.96,-732 1269.96,-732 1269.96,-750 1269.96,-750 1269.96,-756 1263.96,-762 1257.96,-762"/>
<text text-anchor="middle" x="1095.96" y="-744.6" font-family="Arial" font-size="13.00" fill="#f8fafc">D1 — profiles/{domain}.json</text>
<text text-anchor="middle" x="1095.96" y="-730.6" font-family="Arial" font-size="13.00" fill="#f8fafc">URL • keywords • concurrents • credentials • fréquence</text>
</g>
<!-- orch&#45;&gt;profile -->
<g id="edge2" class="edge">
<title>orch&#45;&gt;profile</title>
<path fill="none" stroke="#cbd5e1" stroke-width="1.2" d="M1191.65,-843.72C1169.79,-820.49 1141.01,-789.89 1120.75,-768.35"/>
<polygon fill="#cbd5e1" stroke="#cbd5e1" stroke-width="1.2" points="1189.74,-845.77 1197.26,-849.68 1193.82,-841.94 1189.74,-845.77"/>
<polygon fill="#cbd5e1" stroke="#cbd5e1" stroke-width="1.2" points="1122.53,-766.16 1115.01,-762.25 1118.45,-769.99 1122.53,-766.16"/>
<text text-anchor="middle" x="1216.46" y="-810.2" font-family="Arial" font-size="11.00" fill="#e2e8f0">2. lit ou crée le profil</text>
</g>
<!-- audits -->
<g id="node4" class="node">
<title>audits</title>
<path fill="#2563eb" stroke="#e5e7eb" stroke-width="2" d="M869.96,-776C869.96,-776 489.96,-776 489.96,-776 483.96,-776 477.96,-770 477.96,-764 477.96,-764 477.96,-718 477.96,-718 477.96,-712 483.96,-706 489.96,-706 489.96,-706 869.96,-706 869.96,-706 875.96,-706 881.96,-712 881.96,-718 881.96,-718 881.96,-764 881.96,-764 881.96,-770 875.96,-776 869.96,-776"/>
<text text-anchor="middle" x="679.96" y="-758.6" font-family="Arial" font-size="13.00" fill="#f8fafc">AGENTS D&#39;AUDIT — run &#45;&#45;full</text>
<text text-anchor="middle" x="679.96" y="-744.6" font-family="Arial" font-size="13.00" fill="#f8fafc">A1 audit&#45;seo | A2 audit&#45;geo | A3 audit&#45;aeo | A4 audit&#45;competitors</text>
<text text-anchor="middle" x="679.96" y="-730.6" font-family="Arial" font-size="13.00" fill="#f8fafc">A5 audit&#45;pages | A6 audit&#45;metadata | A7 audit&#45;schema&#45;auto</text>
<text text-anchor="middle" x="679.96" y="-716.6" font-family="Arial" font-size="13.00" fill="#f8fafc">A8 audit&#45;llms | A9 audit&#45;keywords | A10 audit&#45;free&#45;serp</text>
</g>
<!-- orch&#45;&gt;audits -->
<g id="edge3" class="edge">
<title>orch&#45;&gt;audits</title>
<path fill="none" stroke="#cbd5e1" stroke-width="1.2" d="M1096.89,-849.95C1054.55,-840.55 1007.12,-829.68 963.96,-819 913,-806.39 857.2,-791.5 808.65,-778.19"/>
<polygon fill="#cbd5e1" stroke="#cbd5e1" stroke-width="1.2" points="809.37,-775.49 800.92,-776.07 807.89,-780.89 809.37,-775.49"/>
<text text-anchor="middle" x="1056.96" y="-810.2" font-family="Arial" font-size="11.00" fill="#e2e8f0">3. dispatch parallèle avec profile JSON</text>
</g>
<!-- orch&#45;&gt;apply -->
<g id="edge12" class="edge">
<title>orch&#45;&gt;apply</title>
<path fill="none" stroke="#cbd5e1" stroke-width="1.2" d="M1382.46,-849.98C1486.45,-827.68 1602.96,-791.62 1602.96,-742 1602.96,-742 1602.96,-742 1602.96,-459 1602.96,-420.05 1606.27,-401.76 1577.96,-375 1560.92,-358.9 1518.19,-345.73 1471.41,-335.57"/>
<polygon fill="#cbd5e1" stroke="#cbd5e1" stroke-width="1.2" points="1471.97,-332.83 1463.56,-333.9 1470.8,-338.31 1471.97,-332.83"/>
<text text-anchor="middle" x="1666.46" y="-601.2" font-family="Arial" font-size="11.00" fill="#e2e8f0">8. apply : fixes.json + profil</text>
</g>
<!-- schema -->
<g id="node11" class="node">
<title>schema</title>
<path fill="#16a34a" stroke="#e5e7eb" d="M322.46,-330C322.46,-330 67.46,-330 67.46,-330 61.46,-330 55.46,-324 55.46,-318 55.46,-318 55.46,-300 55.46,-300 55.46,-294 61.46,-288 67.46,-288 67.46,-288 322.46,-288 322.46,-288 328.46,-288 334.46,-294 334.46,-300 334.46,-300 334.46,-318 334.46,-318 334.46,-324 328.46,-330 322.46,-330"/>
<text text-anchor="middle" x="194.96" y="-312.6" font-family="Arial" font-size="13.00" fill="#f8fafc">B1 — audit&#45;schema&#45;strategy</text>
<text text-anchor="middle" x="194.96" y="-298.6" font-family="Arial" font-size="13.00" fill="#f8fafc">Builder schema interactif par page / objectif</text>
</g>
<!-- orch&#45;&gt;schema -->
<g id="edge18" class="edge">
<title>orch&#45;&gt;schema</title>
<path fill="none" stroke="#cbd5e1" stroke-width="1.2" d="M1014.29,-871.94C696.81,-861.41 128.96,-830.24 128.96,-742 128.96,-742 128.96,-742 128.96,-459 128.96,-413.36 155.17,-366.07 174.56,-337.33"/>
<polygon fill="#cbd5e1" stroke="#cbd5e1" stroke-width="1.2" points="177.07,-338.61 179.32,-330.44 172.47,-335.43 177.07,-338.61"/>
<text text-anchor="middle" x="169.96" y="-601.2" font-family="Arial" font-size="11.00" fill="#e2e8f0">schema interactif</text>
</g>
<!-- internal -->
<g id="node5" class="node">
<title>internal</title>
<path fill="#6b7280" stroke="#e5e7eb" stroke-width="2" d="M492.46,-200C492.46,-200 67.46,-200 67.46,-200 61.46,-200 55.46,-194 55.46,-188 55.46,-188 55.46,-142 55.46,-142 55.46,-136 61.46,-130 67.46,-130 67.46,-130 492.46,-130 492.46,-130 498.46,-130 504.46,-136 504.46,-142 504.46,-142 504.46,-188 504.46,-188 504.46,-194 498.46,-200 492.46,-200"/>
<text text-anchor="middle" x="279.96" y="-182.6" font-family="Arial" font-size="13.00" fill="#f8fafc">SCRIPTS PYTHON INTERNES</text>
<text text-anchor="middle" x="279.96" y="-168.6" font-family="Arial" font-size="13.00" fill="#f8fafc">pagespeed_client • gsc_connector • dataforseo_client • free_serp_client</text>
<text text-anchor="middle" x="279.96" y="-154.6" font-family="Arial" font-size="13.00" fill="#f8fafc">fetch_page • fetch_sitemap • schema_builder • elementor_builder</text>
<text text-anchor="middle" x="279.96" y="-140.6" font-family="Arial" font-size="13.00" fill="#f8fafc">preview_fix • select_fixes • pdf_report</text>
</g>
<!-- audits&#45;&gt;internal -->
<g id="edge4" class="edge">
<title>audits&#45;&gt;internal</title>
<path fill="none" stroke="#cbd5e1" stroke-width="1.2" d="M478.1,-705.96C431.84,-686.1 395.96,-654.68 395.96,-605 395.96,-605 395.96,-605 395.96,-380 395.96,-308.78 374.09,-291.78 336.96,-231 331.82,-222.6 325.57,-214.23 319.12,-206.43"/>
<polygon fill="#cbd5e1" stroke="#cbd5e1" stroke-width="1.2" points="320.99,-204.31 313.67,-200.03 316.73,-207.94 320.99,-204.31"/>
<text text-anchor="middle" x="491.46" y="-457.2" font-family="Arial" font-size="11.00" fill="#e2e8f0">4. appelle wrappers / crawlers / builders</text>
</g>
<!-- reports -->
<g id="node8" class="node">
<title>reports</title>
<path fill="#16a34a" stroke="#e5e7eb" stroke-width="2" d="M1144.96,-632C1144.96,-632 812.96,-632 812.96,-632 806.96,-632 800.96,-626 800.96,-620 800.96,-620 800.96,-588 800.96,-588 800.96,-582 806.96,-576 812.96,-576 812.96,-576 1144.96,-576 1144.96,-576 1150.96,-576 1156.96,-582 1156.96,-588 1156.96,-588 1156.96,-620 1156.96,-620 1156.96,-626 1150.96,-632 1144.96,-632"/>
<text text-anchor="middle" x="978.96" y="-614.6" font-family="Arial" font-size="13.00" fill="#f8fafc">B3 — reports</text>
<text text-anchor="middle" x="978.96" y="-600.6" font-family="Arial" font-size="13.00" fill="#f8fafc">Agrégation des résultats JSON</text>
<text text-anchor="middle" x="978.96" y="-586.6" font-family="Arial" font-size="13.00" fill="#f8fafc">Calcul score • priorisation P0/P1/P2 • génération rapport</text>
</g>
<!-- audits&#45;&gt;reports -->
<g id="edge9" class="edge">
<title>audits&#45;&gt;reports</title>
<path fill="none" stroke="#cbd5e1" stroke-width="1.2" d="M755.41,-705.93C803.52,-684.21 865.33,-656.3 911.75,-635.34"/>
<polygon fill="#cbd5e1" stroke="#cbd5e1" stroke-width="1.2" points="912.93,-637.88 919.07,-632.04 910.63,-632.78 912.93,-637.88"/>
<text text-anchor="middle" x="912.96" y="-666.2" font-family="Arial" font-size="11.00" fill="#e2e8f0">5. résultats JSON par pilier</text>
</g>
<!-- content -->
<g id="node12" class="node">
<title>content</title>
<path fill="#16a34a" stroke="#e5e7eb" stroke-width="2" d="M872.46,-337C872.46,-337 557.46,-337 557.46,-337 551.46,-337 545.46,-331 545.46,-325 545.46,-325 545.46,-293 545.46,-293 545.46,-287 551.46,-281 557.46,-281 557.46,-281 872.46,-281 872.46,-281 878.46,-281 884.46,-287 884.46,-293 884.46,-293 884.46,-325 884.46,-325 884.46,-331 878.46,-337 872.46,-337"/>
<text text-anchor="middle" x="714.96" y="-319.6" font-family="Arial" font-size="13.00" fill="#f8fafc">B4 — content&#45;elementor</text>
<text text-anchor="middle" x="714.96" y="-305.6" font-family="Arial" font-size="13.00" fill="#f8fafc">Création / optimisation de pages Elementor</text>
<text text-anchor="middle" x="714.96" y="-291.6" font-family="Arial" font-size="13.00" fill="#f8fafc">Brief keywords → JSON Elementor → publication WP</text>
</g>
<!-- audits&#45;&gt;content -->
<g id="edge21" class="edge">
<title>audits&#45;&gt;content</title>
<path fill="none" stroke="#cbd5e1" stroke-width="1.2" d="M682.73,-705.9C689.25,-625.88 705.46,-426.71 712.08,-345.41"/>
<polygon fill="#cbd5e1" stroke="#cbd5e1" stroke-width="1.2" points="714.9,-345.21 712.76,-337.01 709.32,-344.75 714.9,-345.21"/>
<text text-anchor="middle" x="781.46" y="-536.2" font-family="Arial" font-size="11.00" fill="#e2e8f0">keyword_brief : pages manquantes</text>
</g>
<!-- paid -->
<g id="node6" class="node">
<title>paid</title>
<path fill="#ea580c" stroke="#e5e7eb" stroke-width="2" d="M1481.96,-56C1481.96,-56 1171.96,-56 1171.96,-56 1165.96,-56 1159.96,-50 1159.96,-44 1159.96,-44 1159.96,-12 1159.96,-12 1159.96,-6 1165.96,0 1171.96,0 1171.96,0 1481.96,0 1481.96,0 1487.96,0 1493.96,-6 1493.96,-12 1493.96,-12 1493.96,-44 1493.96,-44 1493.96,-50 1487.96,-56 1481.96,-56"/>
<text text-anchor="middle" x="1326.96" y="-38.6" font-family="Arial" font-size="13.00" fill="#f8fafc">APIs EXTERNES PAYANTES / OPTIONNELLES</text>
<text text-anchor="middle" x="1326.96" y="-24.6" font-family="Arial" font-size="13.00" fill="#f8fafc">PageSpeed Insights • Google Search Console • GA4</text>
<text text-anchor="middle" x="1326.96" y="-10.6" font-family="Arial" font-size="13.00" fill="#f8fafc">DataForSEO • WP REST API</text>
</g>
<!-- internal&#45;&gt;paid -->
<g id="edge5" class="edge">
<title>internal&#45;&gt;paid</title>
<path fill="none" stroke="#cbd5e1" stroke-width="1.2" d="M504.53,-133.99C514.81,-132.63 524.99,-131.3 534.96,-130 747,-102.34 991.1,-71.34 1151.61,-51.07"/>
<polygon fill="#cbd5e1" stroke="#cbd5e1" stroke-width="1.2" points="1152.08,-53.83 1159.67,-50.05 1151.38,-48.28 1152.08,-53.83"/>
<text text-anchor="middle" x="1000.46" y="-90.2" font-family="Arial" font-size="11.00" fill="#e2e8f0">connecteurs payants : GSC, PSI, GA4, DataForSEO, WP</text>
</g>
<!-- free -->
<g id="node7" class="node">
<title>free</title>
<path fill="#ca8a04" stroke="#e5e7eb" stroke-width="2" d="M432.96,-56C432.96,-56 126.96,-56 126.96,-56 120.96,-56 114.96,-50 114.96,-44 114.96,-44 114.96,-12 114.96,-12 114.96,-6 120.96,0 126.96,0 126.96,0 432.96,0 432.96,0 438.96,0 444.96,-6 444.96,-12 444.96,-12 444.96,-44 444.96,-44 444.96,-50 438.96,-56 432.96,-56"/>
<text text-anchor="middle" x="279.96" y="-38.6" font-family="Arial" font-size="13.00" fill="#f8fafc">APIs GRATUITES / FALLBACK</text>
<text text-anchor="middle" x="279.96" y="-24.6" font-family="Arial" font-size="13.00" fill="#f8fafc">DuckDuckGo Search • Serper.dev • OpenPageRank</text>
<text text-anchor="middle" x="279.96" y="-10.6" font-family="Arial" font-size="13.00" fill="#f8fafc">pytrends • WebSearch / WebFetch</text>
</g>
<!-- internal&#45;&gt;free -->
<g id="edge6" class="edge">
<title>internal&#45;&gt;free</title>
<path fill="none" stroke="#cbd5e1" stroke-width="1.2" d="M279.96,-129.93C279.96,-109.89 279.96,-84.58 279.96,-64.32"/>
<polygon fill="#cbd5e1" stroke="#cbd5e1" stroke-width="1.2" points="282.76,-64.26 279.96,-56.26 277.16,-64.26 282.76,-64.26"/>
<text text-anchor="middle" x="356.96" y="-90.2" font-family="Arial" font-size="11.00" fill="#e2e8f0">fallback SERP + recherche web</text>
</g>
<!-- paid&#45;&gt;audits -->
<g id="edge7" class="edge">
<title>paid&#45;&gt;audits</title>
<path fill="none" stroke="#cbd5e1" stroke-width="1.2" stroke-dasharray="5,2" d="M1426.68,-56.06C1463.55,-71.43 1501.54,-94.86 1522.96,-130 1573.28,-212.55 1533.74,-261.12 1483.96,-344 1387.63,-504.38 1342.15,-544.19 1176.96,-632 1100.89,-672.44 1072.11,-656.55 987.96,-675 943.77,-684.69 895.95,-694.91 851.48,-704.3"/>
<polygon fill="#cbd5e1" stroke="#cbd5e1" stroke-width="1.2" points="850.75,-701.59 843.5,-705.98 851.91,-707.07 850.75,-701.59"/>
<text text-anchor="middle" x="1553.96" y="-378.2" font-family="Arial" font-size="11.00" fill="#e2e8f0">métriques, SERP, backlinks, analytics</text>
</g>
<!-- free&#45;&gt;audits -->
<g id="edge8" class="edge">
<title>free&#45;&gt;audits</title>
<path fill="none" stroke="#cbd5e1" stroke-width="1.2" stroke-dasharray="5,2" d="M138.38,-56.09C98.23,-71.02 58.95,-94.16 34.96,-130 -17.95,-209.04 -4.21,-257.33 34.96,-344 126.65,-546.88 213.42,-572.3 410.96,-675 432.69,-686.3 456.44,-695.68 480.53,-703.45"/>
<polygon fill="#cbd5e1" stroke="#cbd5e1" stroke-width="1.2" points="479.89,-706.18 488.36,-705.92 481.58,-700.84 479.89,-706.18"/>
<text text-anchor="middle" x="109.46" y="-378.2" font-family="Arial" font-size="11.00" fill="#e2e8f0">fallback si API absente</text>
</g>
<!-- reports&#45;&gt;orch -->
<g id="edge11" class="edge">
<title>reports&#45;&gt;orch</title>
<path fill="none" stroke="#cbd5e1" stroke-width="1.2" d="M1157.27,-623.29C1208.33,-637.75 1258.59,-662.83 1289.96,-706 1319.74,-746.98 1300.71,-775.37 1274.96,-819 1269.91,-827.55 1263.48,-835.97 1256.87,-843.63"/>
<polygon fill="#cbd5e1" stroke="#cbd5e1" stroke-width="1.2" points="1254.54,-842.03 1251.31,-849.87 1258.72,-845.76 1254.54,-842.03"/>
<text text-anchor="middle" x="1373.96" y="-738.2" font-family="Arial" font-size="11.00" fill="#e2e8f0">7. score et synthèse terminal</text>
</g>
<!-- storage -->
<g id="node9" class="node">
<title>storage</title>
<path fill="#7c3aed" stroke="#e5e7eb" stroke-width="2" d="M1129.96,-502C1129.96,-502 827.96,-502 827.96,-502 821.96,-502 815.96,-496 815.96,-490 815.96,-490 815.96,-430 815.96,-430 815.96,-424 821.96,-418 827.96,-418 827.96,-418 1129.96,-418 1129.96,-418 1135.96,-418 1141.96,-424 1141.96,-430 1141.96,-430 1141.96,-490 1141.96,-490 1141.96,-496 1135.96,-502 1129.96,-502"/>
<text text-anchor="middle" x="978.96" y="-484.6" font-family="Arial" font-size="13.00" fill="#f8fafc">STOCKAGE RUN</text>
<text text-anchor="middle" x="978.96" y="-470.6" font-family="Arial" font-size="13.00" fill="#f8fafc">runs/{domain}/{date}/audit.json</text>
<text text-anchor="middle" x="978.96" y="-456.6" font-family="Arial" font-size="13.00" fill="#f8fafc">runs/{domain}/{date}/fixes.json</text>
<text text-anchor="middle" x="978.96" y="-442.6" font-family="Arial" font-size="13.00" fill="#f8fafc">runs/{domain}/{date}/report.md + report.pdf</text>
<text text-anchor="middle" x="978.96" y="-428.6" font-family="Arial" font-size="13.00" fill="#f8fafc">runs/{domain}/{date}/schemas/ • patches/ • content/</text>
</g>
<!-- reports&#45;&gt;storage -->
<g id="edge10" class="edge">
<title>reports&#45;&gt;storage</title>
<path fill="none" stroke="#cbd5e1" stroke-width="1.2" d="M978.96,-575.96C978.96,-557.48 978.96,-532.45 978.96,-510.46"/>
<polygon fill="#cbd5e1" stroke="#cbd5e1" stroke-width="1.2" points="981.76,-510.2 978.96,-502.2 976.16,-510.2 981.76,-510.2"/>
<text text-anchor="middle" x="1066.46" y="-536.2" font-family="Arial" font-size="11.00" fill="#e2e8f0">6. audit.json + fixes.json + report.pdf</text>
</g>
<!-- storage&#45;&gt;apply -->
<g id="edge13" class="edge">
<title>storage&#45;&gt;apply</title>
<path fill="none" stroke="#cbd5e1" stroke-width="1.2" d="M997.67,-417.67C1006.6,-402.18 1018.71,-385.74 1033.96,-375 1064.01,-353.83 1100.1,-339.51 1135.98,-329.83"/>
<polygon fill="#cbd5e1" stroke="#cbd5e1" stroke-width="1.2" points="1137.08,-332.44 1144.11,-327.71 1135.67,-327.02 1137.08,-332.44"/>
<text text-anchor="middle" x="1099.46" y="-378.2" font-family="Arial" font-size="11.00" fill="#e2e8f0">charge correctifs en attente</text>
</g>
<!-- apply&#45;&gt;internal -->
<g id="edge14" class="edge">
<title>apply&#45;&gt;internal</title>
<path fill="none" stroke="#cbd5e1" stroke-width="1.2" d="M1177.96,-273.97C1116.04,-258.5 1040.05,-241.38 970.96,-231 778.85,-202.14 728.22,-219.74 534.96,-200 527.7,-199.26 520.33,-198.47 512.89,-197.65"/>
<polygon fill="#cbd5e1" stroke="#cbd5e1" stroke-width="1.2" points="513.05,-194.85 504.79,-196.75 512.43,-200.42 513.05,-194.85"/>
<text text-anchor="middle" x="1097.46" y="-234.2" font-family="Arial" font-size="11.00" fill="#e2e8f0">preview_fix + select_fixes</text>
</g>
<!-- apply&#45;&gt;paid -->
<g id="edge16" class="edge">
<title>apply&#45;&gt;paid</title>
<path fill="none" stroke="#cbd5e1" stroke-width="1.2" d="M1327.16,-273.7C1339.55,-253.26 1353.55,-226.26 1359.96,-200 1371.38,-153.16 1355.77,-98.34 1342.38,-63.64"/>
<polygon fill="#cbd5e1" stroke="#cbd5e1" stroke-width="1.2" points="1344.95,-62.53 1339.39,-56.13 1339.74,-64.6 1344.95,-62.53"/>
<text text-anchor="middle" x="1437.96" y="-162.2" font-family="Arial" font-size="11.00" fill="#e2e8f0">10. applique via WP REST API</text>
</g>
<!-- apply&#45;&gt;storage -->
<g id="edge17" class="edge">
<title>apply&#45;&gt;storage</title>
<path fill="none" stroke="#cbd5e1" stroke-width="1.2" d="M1249.73,-344.13C1226.03,-358.33 1197.61,-374.39 1170.96,-387 1150.07,-396.88 1127.43,-406.38 1105.27,-415.05"/>
<polygon fill="#cbd5e1" stroke="#cbd5e1" stroke-width="1.2" points="1104.22,-412.46 1097.77,-417.96 1106.25,-417.68 1104.22,-412.46"/>
<text text-anchor="middle" x="1261.46" y="-378.2" font-family="Arial" font-size="11.00" fill="#e2e8f0">patches/ + rapport régénéré</text>
</g>
<!-- schema&#45;&gt;internal -->
<g id="edge19" class="edge">
<title>schema&#45;&gt;internal</title>
<path fill="none" stroke="#cbd5e1" stroke-width="1.2" d="M207.05,-287.73C216.33,-272.2 229.44,-250.24 240.96,-231 245.57,-223.31 250.48,-215.1 255.22,-207.21"/>
<polygon fill="#cbd5e1" stroke="#cbd5e1" stroke-width="1.2" points="257.79,-208.37 259.5,-200.06 252.99,-205.48 257.79,-208.37"/>
<text text-anchor="middle" x="285.96" y="-234.2" font-family="Arial" font-size="11.00" fill="#e2e8f0">schema_builder.py</text>
</g>
<!-- schema&#45;&gt;storage -->
<g id="edge20" class="edge">
<title>schema&#45;&gt;storage</title>
<path fill="none" stroke="#cbd5e1" stroke-width="1.2" d="M300.26,-330.01C430.13,-354.69 652.63,-396.98 807.32,-426.38"/>
<polygon fill="#cbd5e1" stroke="#cbd5e1" stroke-width="1.2" points="807.18,-429.2 815.56,-427.95 808.22,-423.7 807.18,-429.2"/>
<text text-anchor="middle" x="609.96" y="-378.2" font-family="Arial" font-size="11.00" fill="#e2e8f0">schemas/</text>
</g>
<!-- content&#45;&gt;internal -->
<g id="edge22" class="edge">
<title>content&#45;&gt;internal</title>
<path fill="none" stroke="#cbd5e1" stroke-width="1.2" d="M556.19,-280.95C512.32,-271.25 465.18,-258.72 422.96,-243 395.3,-232.7 366.36,-217.95 341.8,-204.11"/>
<polygon fill="#cbd5e1" stroke="#cbd5e1" stroke-width="1.2" points="343,-201.57 334.66,-200.05 340.22,-206.44 343,-201.57"/>
<text text-anchor="middle" x="528.46" y="-234.2" font-family="Arial" font-size="11.00" fill="#e2e8f0">fetch + elementor_builder + schema_builder</text>
</g>
<!-- content&#45;&gt;paid -->
<g id="edge23" class="edge">
<title>content&#45;&gt;paid</title>
<path fill="none" stroke="#cbd5e1" stroke-width="1.2" d="M884.75,-300.11C994.24,-291.96 1124.24,-275.6 1168.96,-243 1214.09,-210.09 1191.32,-175.33 1223.96,-130 1242.21,-104.66 1267.11,-80.04 1287.87,-61.46"/>
<polygon fill="#cbd5e1" stroke="#cbd5e1" stroke-width="1.2" points="1289.74,-63.53 1293.88,-56.13 1286.03,-59.34 1289.74,-63.53"/>
<text text-anchor="middle" x="1286.96" y="-162.2" font-family="Arial" font-size="11.00" fill="#e2e8f0">publication WP REST API</text>
</g>
<!-- content&#45;&gt;free -->
<g id="edge24" class="edge">
<title>content&#45;&gt;free</title>
<path fill="none" stroke="#cbd5e1" stroke-width="1.2" d="M689.45,-280.74C675.19,-265.76 656.91,-247.03 639.96,-231 633.75,-225.13 530.99,-134.86 523.96,-130 490.75,-107.05 480.87,-103.33 443.96,-87 421.03,-76.86 395.73,-67.19 372,-58.76"/>
<polygon fill="#cbd5e1" stroke="#cbd5e1" stroke-width="1.2" points="372.83,-56.09 364.36,-56.07 370.97,-61.37 372.83,-56.09"/>
<text text-anchor="middle" x="680.46" y="-162.2" font-family="Arial" font-size="11.00" fill="#e2e8f0">scraping concurrents WebFetch</text>
</g>
<!-- content&#45;&gt;storage -->
<g id="edge25" class="edge">
<title>content&#45;&gt;storage</title>
<path fill="none" stroke="#cbd5e1" stroke-width="1.2" d="M725.42,-337.28C733.01,-353.77 744.8,-374.05 760.96,-387 775.31,-398.51 791.58,-408.2 808.6,-416.37"/>
<polygon fill="#cbd5e1" stroke="#cbd5e1" stroke-width="1.2" points="807.5,-418.95 815.94,-419.78 809.86,-413.87 807.5,-418.95"/>
<text text-anchor="middle" x="873.46" y="-378.2" font-family="Arial" font-size="11.00" fill="#e2e8f0">content/ : drafts + JSON Elementor + schemas</text>
</g>
<!-- llms -->
<g id="node13" class="node">
<title>llms</title>
<path fill="#2563eb" stroke="#e5e7eb" d="M1131.46,-186C1131.46,-186 790.46,-186 790.46,-186 784.46,-186 778.46,-180 778.46,-174 778.46,-174 778.46,-156 778.46,-156 778.46,-150 784.46,-144 790.46,-144 790.46,-144 1131.46,-144 1131.46,-144 1137.46,-144 1143.46,-150 1143.46,-156 1143.46,-156 1143.46,-174 1143.46,-174 1143.46,-180 1137.46,-186 1131.46,-186"/>
<text text-anchor="middle" x="960.96" y="-168.6" font-family="Arial" font-size="13.00" fill="#f8fafc">A8 — audit&#45;llms</text>
<text text-anchor="middle" x="960.96" y="-154.6" font-family="Arial" font-size="13.00" fill="#f8fafc">Mise à jour llms.txt / llms&#45;full.txt après création de contenu</text>
</g>
<!-- content&#45;&gt;llms -->
<g id="edge26" class="edge">
<title>content&#45;&gt;llms</title>
<path fill="none" stroke="#cbd5e1" stroke-width="1.2" d="M761.81,-280.96C807.23,-254.74 875.51,-215.33 919.14,-190.14"/>
<polygon fill="#cbd5e1" stroke="#cbd5e1" stroke-width="1.2" points="920.67,-192.49 926.19,-186.07 917.87,-187.64 920.67,-192.49"/>
<text text-anchor="middle" x="903.46" y="-234.2" font-family="Arial" font-size="11.00" fill="#e2e8f0">met à jour les fichiers IA</text>
</g>
</g>
</svg>
